<svg width="60" height="61" viewBox="0 0 60 61" fill="none" xmlns="http://www.w3.org/2000/svg">
<path d="M1 13H49V47H1V13Z" fill="#E0E0E2"/>
<path d="M49 13V47H1V44H38C40.1217 44 42.1566 43.1571 43.6569 41.6569C45.1571 40.1566 46 38.1217 46 36V13H49Z" fill="#C6C5CA"/>
<path d="M1 4H49V13H1V4Z" fill="#2488FF"/>
<path d="M49 4V13H1V10H42C43.0609 10 44.0783 9.57857 44.8284 8.82843C45.5786 8.07828 46 7.06087 46 6V4H49Z" fill="#006DF0"/>
<path d="M43 1V6C43 6.79565 42.6839 7.55871 42.1213 8.12132C41.5587 8.68393 40.7956 9 40 9C39.2044 9 38.4413 8.68393 37.8787 8.12132C37.3161 7.55871 37 6.79565 37 6V1H43Z" fill="#FFDE55"/>
<path d="M7 37H13V43H7V37Z" fill="#898890"/>
<path d="M7 27H13V33H7V27Z" fill="#898890"/>
<path d="M7 17H13V23H7V17Z" fill="#FF7956"/>
<path d="M13 17V23H7V21H9C9.53043 21 10.0391 20.7893 10.4142 20.4142C10.7893 20.0391 11 19.5304 11 19V17H13Z" fill="#FF5023"/>
<path d="M13 27V33H7V31H9C9.53043 31 10.0391 30.7893 10.4142 30.4142C10.7893 30.0391 11 29.5304 11 29V27H13Z" fill="#787680"/>
<path d="M13 37V43H7V41H9C9.53043 41 10.0391 40.7893 10.4142 40.4142C10.7893 40.0391 11 39.5304 11 39V37H13Z" fill="#787680"/>
<path d="M13 1V6C13 6.79565 12.6839 7.55871 12.1213 8.12132C11.5587 8.68393 10.7956 9 10 9C9.20435 9 8.44129 8.68393 7.87868 8.12132C7.31607 7.55871 7 6.79565 7 6V1H13Z" fill="#FFDE55"/>
<path d="M13 1V6C12.9991 6.71883 12.7402 7.41346 12.2703 7.95745C11.8005 8.50145 11.1509 8.85865 10.4398 8.96403C9.72876 9.06942 9.0035 8.91599 8.39603 8.53167C7.78857 8.14734 7.3393 7.55768 7.12999 6.87C7.41234 6.95447 7.70528 6.99824 7.99999 7C8.79564 7 9.5587 6.68393 10.1213 6.12132C10.6839 5.55871 11 4.79565 11 4V1H13Z" fill="#FFCD00"/>
<path d="M43 1V6C42.9992 6.71883 42.7402 7.41346 42.2704 7.95745C41.8005 8.50145 41.1509 8.85865 40.4398 8.96403C39.7288 9.06942 39.0035 8.91599 38.396 8.53167C37.7886 8.14734 37.3393 7.55768 37.13 6.87C37.4124 6.95447 37.7053 6.99824 38 7C38.7957 7 39.5587 6.68393 40.1213 6.12132C40.6839 5.55871 41 4.79565 41 4V1H43Z" fill="#FFCD00"/>
<path d="M20 23C21.6569 23 23 21.6569 23 20C23 18.3431 21.6569 17 20 17C18.3431 17 17 18.3431 17 20C17 21.6569 18.3431 23 20 23Z" fill="#00D7DF"/>
<path d="M23 20C22.9992 20.7188 22.7402 21.4135 22.2704 21.9575C21.8005 22.5014 21.1509 22.8586 20.4398 22.964C19.7288 23.0694 19.0035 22.916 18.3961 22.5317C17.7886 22.1473 17.3393 21.5577 17.13 20.87C17.4124 20.9545 17.7053 20.9982 18 21C18.7957 21 19.5587 20.6839 20.1213 20.1213C20.6839 19.5587 21 18.7957 21 18C20.9982 17.7053 20.9545 17.4124 20.87 17.13C21.4874 17.3141 22.0286 17.6932 22.4126 18.2105C22.7966 18.7279 23.0027 19.3557 23 20Z" fill="#00B6BD"/>
<path d="M30 23C31.6569 23 33 21.6569 33 20C33 18.3431 31.6569 17 30 17C28.3431 17 27 18.3431 27 20C27 21.6569 28.3431 23 30 23Z" fill="#00D7DF"/>
<path d="M33 20C32.9991 20.7188 32.7402 21.4135 32.2703 21.9575C31.8005 22.5014 31.1509 22.8586 30.4398 22.964C29.7288 23.0694 29.0035 22.916 28.396 22.5317C27.7886 22.1473 27.3393 21.5577 27.13 20.87C27.4124 20.9545 27.7053 20.9982 28 21C28.7957 21 29.5587 20.6839 30.1213 20.1213C30.6839 19.5587 31 18.7957 31 18C30.9982 17.7053 30.9545 17.4124 30.87 17.13C31.4874 17.3141 32.0286 17.6932 32.4126 18.2105C32.7966 18.7279 33.0027 19.3557 33 20Z" fill="#00B6BD"/>
<path d="M40 23C41.6569 23 43 21.6569 43 20C43 18.3431 41.6569 17 40 17C38.3431 17 37 18.3431 37 20C37 21.6569 38.3431 23 40 23Z" fill="#00D7DF"/>
<path d="M43 20C42.9991 20.7188 42.7402 21.4135 42.2703 21.9575C41.8005 22.5014 41.1509 22.8586 40.4398 22.964C39.7288 23.0694 39.0035 22.916 38.396 22.5317C37.7886 22.1473 37.3393 21.5577 37.13 20.87C37.4124 20.9545 37.7053 20.9982 38 21C38.7957 21 39.5587 20.6839 40.1213 20.1213C40.6839 19.5587 41 18.7957 41 18C40.9982 17.7053 40.9545 17.4124 40.87 17.13C41.4874 17.3141 42.0286 17.6932 42.4126 18.2105C42.7966 18.7279 43.0027 19.3557 43 20Z" fill="#00B6BD"/>
<path d="M30 33C31.6569 33 33 31.6569 33 30C33 28.3431 31.6569 27 30 27C28.3431 27 27 28.3431 27 30C27 31.6569 28.3431 33 30 33Z" fill="#00D7DF"/>
<path d="M33 30C32.9991 30.7188 32.7402 31.4135 32.2703 31.9574C31.8005 32.5014 31.1509 32.8586 30.4398 32.964C29.7288 33.0694 29.0035 32.916 28.396 32.5317C27.7886 32.1473 27.3393 31.5577 27.13 30.87C27.4124 30.9545 27.7053 30.9982 28 31C28.7957 31 29.5587 30.6839 30.1213 30.1213C30.6839 29.5587 31 28.7957 31 28C30.9982 27.7053 30.9545 27.4124 30.87 27.13C31.4874 27.3141 32.0286 27.6932 32.4126 28.2105C32.7966 28.7279 33.0027 29.3557 33 30Z" fill="#00B6BD"/>
<path d="M20 33C21.6569 33 23 31.6569 23 30C23 28.3431 21.6569 27 20 27C18.3431 27 17 28.3431 17 30C17 31.6569 18.3431 33 20 33Z" fill="#00D7DF"/>
<path d="M23 30C22.9992 30.7188 22.7402 31.4135 22.2704 31.9574C21.8005 32.5014 21.1509 32.8586 20.4398 32.964C19.7288 33.0694 19.0035 32.916 18.3961 32.5317C17.7886 32.1473 17.3393 31.5577 17.13 30.87C17.4124 30.9545 17.7053 30.9982 18 31C18.7957 31 19.5587 30.6839 20.1213 30.1213C20.6839 29.5587 21 28.7957 21 28C20.9982 27.7053 20.9545 27.4124 20.87 27.13C21.4874 27.3141 22.0286 27.6932 22.4126 28.2105C22.7966 28.7279 23.0027 29.3557 23 30Z" fill="#00B6BD"/>
<path d="M20 43C21.6569 43 23 41.6569 23 40C23 38.3431 21.6569 37 20 37C18.3431 37 17 38.3431 17 40C17 41.6569 18.3431 43 20 43Z" fill="#00D7DF"/>
<path d="M23 40C22.9992 40.7188 22.7402 41.4135 22.2704 41.9574C21.8005 42.5014 21.1509 42.8586 20.4398 42.964C19.7288 43.0694 19.0035 42.916 18.3961 42.5317C17.7886 42.1473 17.3393 41.5577 17.13 40.87C17.4124 40.9545 17.7053 40.9982 18 41C18.7957 41 19.5587 40.6839 20.1213 40.1213C20.6839 39.5587 21 38.7957 21 38C20.9982 37.7053 20.9545 37.4124 20.87 37.13C21.4874 37.3141 22.0286 37.6932 22.4126 38.2105C22.7966 38.7279 23.0027 39.3557 23 40Z" fill="#00B6BD"/>
<path d="M59 33V38.3C59.0005 42.4579 57.9206 46.5446 55.866 50.1594C53.8114 53.7742 50.8527 56.793 47.28 58.92L47 59.08L46.72 58.92C43.1466 56.7939 40.1873 53.7752 38.1326 50.1602C36.0779 46.5452 34.9984 42.4581 35 38.3V33L47 29L49 29.67L59 33Z" fill="#33DFE5"/>
<path d="M59 33V38.3C59.0005 42.4579 57.9205 46.5446 55.866 50.1594C53.8114 53.7742 50.8527 56.793 47.28 58.92L47 59.08L46.72 58.92C46.13 58.57 45.55 58.19 45 57.79C48.0956 55.5696 50.6174 52.6435 52.3564 49.254C54.0955 45.8646 55.0017 42.1095 55 38.3V33L45 29.67L47 29L49 29.67L59 33Z" fill="#00B6BD"/>
<path d="M55 36V38.3C54.9887 41.3605 54.259 44.3756 52.8694 47.1026C51.4799 49.8295 49.4695 52.1921 47 54C44.5305 52.1921 42.5201 49.8295 41.1306 47.1026C39.741 44.3756 39.0113 41.3605 39 38.3V36L47 33L55 36Z" fill="#2488FF"/>
<path d="M55 36V38.3C54.9887 41.3605 54.259 44.3756 52.8694 47.1026C51.4799 49.8295 49.4695 52.1921 47 54C46.2949 53.473 45.6266 52.8983 45 52.28C46.8955 50.4782 48.4048 48.3097 49.4363 45.9064C50.4677 43.5032 50.9997 40.9153 51 38.3V36L45 33.75L47 33L55 36Z" fill="#005ECE"/>
<path d="M13 16H7C6.73478 16 6.48043 16.1054 6.29289 16.2929C6.10536 16.4804 6 16.7348 6 17V23C6 23.2652 6.10536 23.5196 6.29289 23.7071C6.48043 23.8946 6.73478 24 7 24H13C13.2652 24 13.5196 23.8946 13.7071 23.7071C13.8946 23.5196 14 23.2652 14 23V17C14 16.7348 13.8946 16.4804 13.7071 16.2929C13.5196 16.1054 13.2652 16 13 16ZM12 22H8V18H12V22Z" fill="black"/>
<path d="M20 16C19.2089 16 18.4355 16.2346 17.7777 16.6741C17.1199 17.1136 16.6072 17.7384 16.3045 18.4693C16.0017 19.2002 15.9225 20.0044 16.0769 20.7804C16.2312 21.5563 16.6122 22.269 17.1716 22.8284C17.731 23.3878 18.4437 23.7688 19.2196 23.9231C19.9956 24.0775 20.7998 23.9983 21.5307 23.6955C22.2616 23.3928 22.8864 22.8801 23.3259 22.2223C23.7654 21.5645 24 20.7911 24 20C24 18.9391 23.5786 17.9217 22.8284 17.1716C22.0783 16.4214 21.0609 16 20 16ZM20 22C19.6044 22 19.2178 21.8827 18.8889 21.6629C18.56 21.4432 18.3036 21.1308 18.1522 20.7654C18.0009 20.3999 17.9613 19.9978 18.0384 19.6098C18.1156 19.2219 18.3061 18.8655 18.5858 18.5858C18.8655 18.3061 19.2219 18.1156 19.6098 18.0384C19.9978 17.9613 20.3999 18.0009 20.7654 18.1522C21.1308 18.3036 21.4432 18.56 21.6629 18.8889C21.8827 19.2178 22 19.6044 22 20C22 20.5304 21.7893 21.0391 21.4142 21.4142C21.0391 21.7893 20.5304 22 20 22Z" fill="black"/>
<path d="M30.031 23.969C30.8221 23.969 31.5955 23.7344 32.2533 23.2949C32.9111 22.8553 33.4238 22.2306 33.7265 21.4997C34.0293 20.7688 34.1085 19.9646 33.9542 19.1886C33.7998 18.4127 33.4189 17.7 32.8594 17.1406C32.3 16.5812 31.5873 16.2002 30.8114 16.0459C30.0354 15.8915 29.2312 15.9707 28.5003 16.2735C27.7694 16.5762 27.1447 17.0889 26.7051 17.7467C26.2656 18.4045 26.031 19.1779 26.031 19.969C26.031 21.0299 26.4524 22.0473 27.2026 22.7974C27.9527 23.5476 28.9701 23.969 30.031 23.969ZM30.031 17.969C30.4266 17.969 30.8133 18.0863 31.1422 18.3061C31.4711 18.5258 31.7274 18.8382 31.8788 19.2036C32.0301 19.5691 32.0698 19.9712 31.9926 20.3592C31.9154 20.7471 31.7249 21.1035 31.4452 21.3832C31.1655 21.6629 30.8092 21.8534 30.4212 21.9306C30.0332 22.0077 29.6311 21.9681 29.2656 21.8168C28.9002 21.6654 28.5878 21.409 28.3681 21.0801C28.1483 20.7512 28.031 20.3646 28.031 19.969C28.031 19.4386 28.2417 18.9299 28.6168 18.5548C28.9919 18.1797 29.5006 17.969 30.031 17.969Z" fill="black"/>
<path d="M40.062 23.938C40.8531 23.938 41.6265 23.7034 42.2843 23.2639C42.9421 22.8243 43.4548 22.1996 43.7575 21.4687C44.0603 20.7378 44.1395 19.9336 43.9851 19.1576C43.8308 18.3817 43.4498 17.669 42.8904 17.1096C42.331 16.5502 41.6183 16.1692 40.8423 16.0148C40.0664 15.8605 39.2622 15.9397 38.5313 16.2425C37.8004 16.5452 37.1756 17.0579 36.7361 17.7157C36.2966 18.3735 36.062 19.1469 36.062 19.938C36.062 20.9989 36.4834 22.0163 37.2336 22.7664C37.9837 23.5166 39.0011 23.938 40.062 23.938ZM40.062 17.938C40.4576 17.938 40.8442 18.0553 41.1731 18.2751C41.502 18.4948 41.7584 18.8072 41.9097 19.1726C42.0611 19.5381 42.1007 19.9402 42.0236 20.3282C41.9464 20.7161 41.7559 21.0725 41.4762 21.3522C41.1965 21.6319 40.8401 21.8224 40.4522 21.8996C40.0642 21.9767 39.6621 21.9371 39.2966 21.7857C38.9312 21.6344 38.6188 21.378 38.3991 21.0491C38.1793 20.7202 38.062 20.3336 38.062 19.938C38.062 19.4076 38.2727 18.8988 38.6478 18.5238C39.0228 18.1487 39.5316 17.938 40.062 17.938Z" fill="black"/>
<path d="M20 26C19.2089 26 18.4355 26.2346 17.7777 26.6741C17.1199 27.1136 16.6072 27.7384 16.3045 28.4693C16.0017 29.2002 15.9225 30.0044 16.0769 30.7804C16.2312 31.5563 16.6122 32.269 17.1716 32.8284C17.731 33.3878 18.4437 33.7688 19.2196 33.9232C19.9956 34.0775 20.7998 33.9983 21.5307 33.6955C22.2616 33.3928 22.8864 32.8801 23.3259 32.2223C23.7654 31.5645 24 30.7911 24 30C24 28.9391 23.5786 27.9217 22.8284 27.1716C22.0783 26.4214 21.0609 26 20 26ZM20 32C19.6044 32 19.2178 31.8827 18.8889 31.663C18.56 31.4432 18.3036 31.1308 18.1522 30.7654C18.0009 30.3999 17.9613 29.9978 18.0384 29.6098C18.1156 29.2219 18.3061 28.8655 18.5858 28.5858C18.8655 28.3061 19.2219 28.1156 19.6098 28.0384C19.9978 27.9613 20.3999 28.0009 20.7654 28.1522C21.1308 28.3036 21.4432 28.56 21.6629 28.8889C21.8827 29.2178 22 29.6044 22 30C22 30.5304 21.7893 31.0392 21.4142 31.4142C21.0391 31.7893 20.5304 32 20 32Z" fill="black"/>
<path d="M30.031 25.969C29.2399 25.969 28.4665 26.2036 27.8087 26.6431C27.1509 27.0826 26.6382 27.7074 26.3355 28.4383C26.0327 29.1692 25.9535 29.9734 26.1079 30.7493C26.2622 31.5253 26.6432 32.238 27.2026 32.7974C27.762 33.3568 28.4747 33.7378 29.2506 33.8921C30.0266 34.0465 30.8308 33.9672 31.5617 33.6645C32.2926 33.3617 32.9174 32.8491 33.3569 32.1913C33.7964 31.5335 34.031 30.7601 34.031 29.969C34.031 28.9081 33.6096 27.8907 32.8594 27.1406C32.1093 26.3904 31.0919 25.969 30.031 25.969ZM30.031 31.969C29.6354 31.969 29.2488 31.8517 28.9199 31.6319C28.591 31.4122 28.3346 31.0998 28.1832 30.7344C28.0319 30.3689 27.9923 29.9668 28.0694 29.5788C28.1466 29.1908 28.3371 28.8345 28.6168 28.5548C28.8965 28.2751 29.2529 28.0846 29.6408 28.0074C30.0288 27.9302 30.4309 27.9699 30.7964 28.1212C31.1618 28.2726 31.4742 28.529 31.6939 28.8578C31.9137 29.1867 32.031 29.5734 32.031 29.969C32.031 30.4994 31.8203 31.0081 31.4452 31.3832C31.0701 31.7583 30.5614 31.969 30.031 31.969Z" fill="black"/>
<path d="M13 26H7C6.73478 26 6.48043 26.1054 6.29289 26.2929C6.10536 26.4804 6 26.7348 6 27V33C6 33.2652 6.10536 33.5196 6.29289 33.7071C6.48043 33.8946 6.73478 34 7 34H13C13.2652 34 13.5196 33.8946 13.7071 33.7071C13.8946 33.5196 14 33.2652 14 33V27C14 26.7348 13.8946 26.4804 13.7071 26.2929C13.5196 26.1054 13.2652 26 13 26ZM12 32H8V28H12V32Z" fill="black"/>
<path d="M20 36C19.2089 36 18.4355 36.2346 17.7777 36.6741C17.1199 37.1136 16.6072 37.7384 16.3045 38.4693C16.0017 39.2002 15.9225 40.0044 16.0769 40.7804C16.2312 41.5563 16.6122 42.269 17.1716 42.8284C17.731 43.3878 18.4437 43.7688 19.2196 43.9232C19.9956 44.0775 20.7998 43.9983 21.5307 43.6955C22.2616 43.3928 22.8864 42.8801 23.3259 42.2223C23.7654 41.5645 24 40.7911 24 40C24 38.9391 23.5786 37.9217 22.8284 37.1716C22.0783 36.4214 21.0609 36 20 36ZM20 42C19.6044 42 19.2178 41.8827 18.8889 41.663C18.56 41.4432 18.3036 41.1308 18.1522 40.7654C18.0009 40.3999 17.9613 39.9978 18.0384 39.6098C18.1156 39.2219 18.3061 38.8655 18.5858 38.5858C18.8655 38.3061 19.2219 38.1156 19.6098 38.0384C19.9978 37.9613 20.3999 38.0009 20.7654 38.1522C21.1308 38.3036 21.4432 38.56 21.6629 38.8889C21.8827 39.2178 22 39.6044 22 40C22 40.5304 21.7893 41.0392 21.4142 41.4142C21.0391 41.7893 20.5304 42 20 42Z" fill="black"/>
<path d="M13 36H7C6.73478 36 6.48043 36.1054 6.29289 36.2929C6.10536 36.4804 6 36.7348 6 37V43C6 43.2652 6.10536 43.5196 6.29289 43.7071C6.48043 43.8946 6.73478 44 7 44H13C13.2652 44 13.5196 43.8946 13.7071 43.7071C13.8946 43.5196 14 43.2652 14 43V37C14 36.7348 13.8946 36.4804 13.7071 36.2929C13.5196 36.1054 13.2652 36 13 36ZM12 42H8V38H12V42Z" fill="black"/>
<path d="M59.32 32.05L50 28.95V4C50 3.73478 49.8946 3.48043 49.7071 3.29289C49.5196 3.10536 49.2652 3 49 3H44V1C44 0.734784 43.8946 0.48043 43.7071 0.292893C43.5196 0.105357 43.2652 0 43 0H37C36.7348 0 36.4804 0.105357 36.2929 0.292893C36.1054 0.48043 36 0.734784 36 1V3H14V1C14 0.734784 13.8946 0.48043 13.7071 0.292893C13.5196 0.105357 13.2652 0 13 0H7C6.73478 0 6.48043 0.105357 6.29289 0.292893C6.10536 0.48043 6 0.734784 6 1V3H1C0.734784 3 0.48043 3.10536 0.292893 3.29289C0.105357 3.48043 0 3.73478 0 4V47C0 47.2652 0.105357 47.5196 0.292893 47.7071C0.48043 47.8946 0.734784 48 1 48H35.98C38.0532 52.9129 41.6361 57.0387 46.21 59.78L46.49 59.94C46.6444 60.0315 46.8205 60.0798 47 60.0798C47.1795 60.0798 47.3556 60.0315 47.51 59.94L47.79 59.78C51.5037 57.5553 54.5794 54.4086 56.7187 50.6451C58.858 46.8816 59.9883 42.629 60 38.3V33C59.9985 32.7909 59.9323 32.5873 59.8106 32.4172C59.6888 32.2472 59.5175 32.1189 59.32 32.05ZM38 2H42V6C42 6.53043 41.7893 7.03914 41.4142 7.41421C41.0391 7.78929 40.5304 8 40 8C39.4696 8 38.9609 7.78929 38.5858 7.41421C38.2107 7.03914 38 6.53043 38 6V2ZM8 2H12V6C12 6.53043 11.7893 7.03914 11.4142 7.41421C11.0391 7.78929 10.5304 8 10 8C9.46957 8 8.96086 7.78929 8.58579 7.41421C8.21071 7.03914 8 6.53043 8 6V2ZM2 5H6V6C6 7.06087 6.42143 8.07828 7.17157 8.82843C7.92172 9.57857 8.93913 10 10 10C11.0609 10 12.0783 9.57857 12.8284 8.82843C13.5786 8.07828 14 7.06087 14 6V5H36V6C36 7.06087 36.4214 8.07828 37.1716 8.82843C37.9217 9.57857 38.9391 10 40 10C41.0609 10 42.0783 9.57857 42.8284 8.82843C43.5786 8.07828 44 7.06087 44 6V5H48V12H2V5ZM35.24 46H2V14H48V28.28L47.32 28.05C47.1124 27.9799 46.8876 27.9799 46.68 28.05L34.68 32.05C34.4825 32.1189 34.3112 32.2472 34.1894 32.4172C34.0677 32.5873 34.0015 32.7909 34 33V38.3C34.0018 40.9162 34.4204 43.5155 35.24 46ZM58 38.3C57.9882 42.2363 56.9717 46.1043 55.0467 49.5378C53.1217 52.9713 50.352 55.8565 47 57.92C43.648 55.8565 40.8783 52.9713 38.9533 49.5378C37.0283 46.1043 36.0118 42.2363 36 38.3V33.72L47 30.05L58 33.72V38.3Z" fill="black"/>
<path d="M46.649 32.063L38.649 35.063C38.4583 35.1345 38.2939 35.2625 38.1779 35.43C38.062 35.5974 37.9999 35.7963 38 36V38.3C38.0125 41.5155 38.779 44.6833 40.2379 47.5489C41.6967 50.4145 43.8073 52.898 46.4 54.8C46.5731 54.9298 46.7836 55 47 55C47.2164 55 47.4269 54.9298 47.6 54.8C50.1927 52.898 52.3033 50.4145 53.7621 47.5489C55.221 44.6833 55.9875 41.5155 56 38.3V36C56.0001 35.7963 55.938 35.5974 55.8221 35.43C55.7061 35.2625 55.5417 35.1345 55.351 35.063L47.351 32.063C47.1245 31.979 46.8755 31.979 46.649 32.063ZM54 36.693V38.293C53.9894 41.0697 53.3548 43.8085 52.1431 46.3069C50.9315 48.8053 49.1738 50.9994 47 52.727C44.827 51.0003 43.0697 48.8073 41.8581 46.3102C40.6465 43.813 40.0115 41.0755 40 38.3V36.7L47 34.075L54 36.693Z" fill="black"/>
</svg>
