<svg width="250" height="123" viewBox="0 0 250 123" fill="none" xmlns="http://www.w3.org/2000/svg">
<g clip-path="url(#clip0)">
<path d="M244.784 73.0306H234.352C230.697 73.0306 227.704 69.9229 227.704 66.1279V54.6011C227.704 53.8018 227.84 53.0398 228.085 52.3227C227.927 52.2853 227.776 52.248 227.617 52.2106L190.342 44.3144C189.097 44.0529 187.896 43.6047 186.773 43.0146V48.6771C186.773 52.3675 183.867 55.3855 180.313 55.3855H174.665C171.111 55.3855 168.204 52.3675 168.204 48.6771V42.8129C168.204 39.1225 171.111 36.1119 174.665 36.1119H178.435L154.52 14.7167C149.354 10.0925 143.188 6.84292 136.54 5.25173C118.82 1.00855 81.6091 -4.5569 41.3262 9.5995C32.2681 12.7819 24.5122 19.0421 19.3393 27.394L6.59035 47.9674C5.74138 49.3345 5.01472 50.7763 4.42476 52.2629L2.38867 69.1086V75.6527C2.38867 78.088 2.69804 80.5085 3.31678 82.8616L4.97875 90.7578H244.806V74.0765C244.813 73.7253 244.806 73.3742 244.784 73.0306Z" fill="#FF4756"/>
<path d="M19.9291 74.8832V69.2132C19.9291 68.4064 19.9723 67.5996 20.0658 66.8002L21.5695 53.6449C21.8861 50.8734 22.7135 48.1765 24.0948 45.8234C24.102 45.8084 24.1092 45.7935 24.1236 45.7785L36.8725 24.1518C42.0455 15.3815 49.8085 8.80011 58.8594 5.45338C60.9962 4.66151 63.1258 3.93689 65.2483 3.25708C57.4924 4.68392 49.4704 6.73828 41.326 9.59944C32.268 12.7818 24.5121 19.042 19.3392 27.3939L6.59024 47.9674C5.74127 49.3345 5.01461 50.7762 4.42465 52.2629L2.39575 69.1086V75.6526C2.39575 78.088 2.70512 80.5084 3.32386 82.8616L4.98583 90.7578H22.5192L20.8572 82.4656C20.2385 79.9855 19.9291 77.4381 19.9291 74.8832Z" fill="#FC2D39"/>
<path d="M245 89.189C192.479 89.189 22.9797 89.189 4.98582 89.189C2.51086 89.189 0.510742 91.2732 0.510742 93.8356V98.0563C0.510742 100.626 2.51805 102.703 4.98582 102.703H245C247.475 102.703 249.475 100.619 249.475 98.0563V93.8356C249.475 91.2732 247.475 89.189 245 89.189Z" fill="#DFEBFA"/>
<path d="M75.8172 98.0563V93.8356C75.8172 91.2657 77.8245 89.189 80.2923 89.189C42.6283 89.189 12.0654 89.189 4.98582 89.189C2.51086 89.189 0.510742 91.2732 0.510742 93.8356V98.0563C0.510742 100.626 2.51805 102.703 4.98582 102.703H80.2923C77.8245 102.703 75.8172 100.626 75.8172 98.0563Z" fill="#B1DBFC"/>
<path d="M227.812 52.2628C227.423 53.1369 227.2 54.108 227.2 55.124V66.6508C227.2 70.4457 230.193 73.5534 233.848 73.5534H244.798C244.568 63.2368 237.553 54.4218 227.812 52.2628Z" fill="#FFD301"/>
<path d="M128.31 70.9314H123.604C121.532 70.9314 119.849 69.1833 119.849 67.0319C119.849 64.8804 121.532 63.1323 123.604 63.1323H128.31C130.382 63.1323 132.065 64.8804 132.065 67.0319C132.065 69.1833 130.389 70.9314 128.31 70.9314Z" fill="#DFEBFA"/>
<path d="M81.2278 70.9314H76.5225C74.4504 70.9314 72.7668 69.1833 72.7668 67.0319C72.7668 64.8804 74.4504 63.1323 76.5225 63.1323H81.2278C83.2998 63.1323 84.9834 64.8804 84.9834 67.0319C84.9834 69.1833 83.2998 70.9314 81.2278 70.9314Z" fill="#DFEBFA"/>
<path d="M9.92856 52.2628H4.42465C3.09363 55.5871 2.39575 59.1655 2.39575 62.7961V69.1085H9.92856C13.4827 69.1085 16.3894 66.0905 16.3894 62.4001V58.9638C16.3822 55.2734 13.4755 52.2628 9.92856 52.2628Z" fill="#FFD301"/>
<path d="M168.218 48.677V45.3975L145.742 25.3021C142.231 22.1571 138.001 19.9309 133.518 18.8627C116.503 14.7913 82.4652 9.89074 45.6357 22.8295C39.4627 24.9959 34.1387 29.3063 30.6349 34.9688C30.0737 35.8728 30.2536 37.068 31.0306 37.7777L46.4559 51.7249C46.8372 52.0686 47.3265 52.2628 47.8373 52.2628H169.226C168.592 51.2169 168.218 49.9918 168.218 48.677Z" fill="#23A8FE"/>
<path d="M43.7003 34.7373C42.9232 33.8856 42.7434 32.4364 43.3045 31.3457C45.4198 27.2071 48.2041 23.6736 51.4417 20.9395C49.5207 21.5221 47.5854 22.1497 45.6428 22.8295C39.4698 24.9959 34.1457 29.3063 30.6419 34.9688C30.0808 35.8728 30.2606 37.068 31.0377 37.7777L46.463 51.7249C46.8443 52.0686 47.3336 52.2628 47.8444 52.2628H60.507C60.0033 52.2628 59.5069 52.0312 59.1256 51.6129L43.7003 34.7373Z" fill="#0193FA"/>
<path d="M180.32 35.589H174.672C170.837 35.589 167.715 38.8311 167.715 42.8129V48.6771C167.715 52.6588 170.837 55.901 174.672 55.901H180.32C184.154 55.901 187.277 52.6588 187.277 48.6771V42.8129C187.277 38.8311 184.162 35.589 180.32 35.589Z" fill="#DFEBFA"/>
<path d="M177.499 48.677V42.8128C177.499 39.5781 179.557 36.829 182.392 35.9101C181.737 35.7009 181.046 35.5814 180.327 35.5814H174.679C170.844 35.5814 167.722 38.8236 167.722 42.8053V48.6695C167.722 52.6513 170.844 55.8934 174.679 55.8934H180.327C181.046 55.8934 181.744 55.7813 182.392 55.5647C179.557 54.6608 177.499 51.9117 177.499 48.677Z" fill="#B1DBFC"/>
<path d="M61.4424 18.28L66.9895 52.2628H112.431V15.3142C98.2862 13.8725 80.5586 13.9098 61.4424 18.28Z" fill="#60B8FE"/>
<path d="M39.4772 122.47C53.6705 122.47 65.1765 110.523 65.1765 95.7853C65.1765 81.048 53.6705 69.1011 39.4772 69.1011C25.2838 69.1011 13.7778 81.048 13.7778 95.7853C13.7778 110.523 25.2838 122.47 39.4772 122.47Z" fill="#665E68"/>
<path d="M27.6347 95.7854C27.6347 83.5414 35.5776 73.2323 46.4056 70.0947C44.204 69.4523 41.8802 69.1086 39.4771 69.1086C25.2821 69.1086 13.7778 81.0538 13.7778 95.7929C13.7778 110.532 25.2821 122.477 39.4771 122.477C41.8802 122.477 44.1968 122.126 46.4056 121.491C35.5776 118.339 27.6347 108.029 27.6347 95.7854Z" fill="#554E56"/>
<path d="M39.4771 109.127C46.5738 109.127 52.3268 103.154 52.3268 95.7854C52.3268 88.4167 46.5738 82.4432 39.4771 82.4432C32.3804 82.4432 26.6274 88.4167 26.6274 95.7854C26.6274 103.154 32.3804 109.127 39.4771 109.127Z" fill="#DFEBFA"/>
<path d="M40.4844 95.7854C40.4844 91.0641 42.8442 86.9255 46.4056 84.5499C44.4054 83.2202 42.0312 82.4432 39.4771 82.4432C32.3832 82.4432 26.6274 88.4196 26.6274 95.7854C26.6274 103.151 32.3832 109.127 39.4771 109.127C42.0312 109.127 44.4054 108.351 46.4056 107.021C42.8442 104.653 40.4844 100.507 40.4844 95.7854Z" fill="#B1DBFC"/>
<path d="M200.033 122.47C214.226 122.47 225.732 110.523 225.732 95.7853C225.732 81.048 214.226 69.1011 200.033 69.1011C185.84 69.1011 174.334 81.048 174.334 95.7853C174.334 110.523 185.84 122.47 200.033 122.47Z" fill="#665E68"/>
<path d="M188.184 95.7854C188.184 83.5414 196.126 73.2323 206.954 70.0947C204.753 69.4523 202.429 69.1086 200.026 69.1086C185.831 69.1086 174.327 81.0538 174.327 95.7929C174.327 110.532 185.831 122.477 200.026 122.477C202.429 122.477 204.746 122.126 206.954 121.491C196.126 118.339 188.184 108.029 188.184 95.7854Z" fill="#554E56"/>
<path d="M200.033 109.127C207.13 109.127 212.883 103.154 212.883 95.7854C212.883 88.4167 207.13 82.4432 200.033 82.4432C192.936 82.4432 187.183 88.4167 187.183 95.7854C187.183 103.154 192.936 109.127 200.033 109.127Z" fill="#DFEBFA"/>
<path d="M201.033 95.7854C201.033 91.0641 203.393 86.9255 206.954 84.5499C204.954 83.2202 202.58 82.4432 200.026 82.4432C192.932 82.4432 187.176 88.4196 187.176 95.7854C187.176 103.151 192.932 109.127 200.026 109.127C202.58 109.127 204.954 108.351 206.954 107.021C203.393 104.653 201.033 100.507 201.033 95.7854Z" fill="#B1DBFC"/>
<path d="M4.98595 102.703H11.9072C13.4469 102.703 14.8282 103.697 15.3606 105.198C16.2816 107.79 18.2745 111.981 22.3682 115.716C28.8578 121.648 35.5201 122.245 35.5201 122.245C35.5201 122.245 40.7794 122.866 44.017 122.044C47.0747 121.267 58.838 118.563 63.5433 105.183C64.0685 103.689 65.4643 102.703 66.9967 102.703C81.494 102.703 82.3573 102.703 82.3573 102.703H119.064H172.521C174.053 102.703 175.413 103.689 175.967 105.168C177.881 110.308 183.924 121.738 200.026 122.462C215.401 122.462 221.934 110.278 224.035 105.041C224.603 103.614 225.948 102.695 227.43 102.695H245.475C245.475 102.695 249.547 102.688 249.468 96.3008C249.381 89.9137 249.468 94.7096 249.468 94.7096C249.468 94.7096 249.791 91.0865 247.021 89.7045C245.698 89.0396 244.798 87.7174 244.798 86.1934V85.1326L244.791 73.546C244.791 73.546 244.791 63.207 236.913 56.7974C231.805 52.853 227.805 52.2554 227.805 52.2554L195.608 45.4275L190.342 44.3144C190.342 44.3144 190.342 44.3144 187.277 43.2685C187.306 44.2397 187.32 40.7809 186.032 38.6966C184.881 36.8365 183.658 36.4779 183.658 36.4779C183.658 36.4779 182.183 35.589 180.025 35.589H179.233C178.348 35.589 177.499 35.2603 176.83 34.6626L176.643 34.4908L158.383 18.168C158.311 18.1008 158.239 18.0335 158.167 17.9588C157.153 16.8906 147.901 7.42559 135.922 5.1023C123.216 2.63707 122.137 2.47272 122.137 2.47272L111.855 1.24758C111.776 1.24011 111.697 1.23264 111.611 1.22517L97.7611 0.53042C97.6891 0.53042 97.6172 0.522949 97.5452 0.522949L90.5089 0.590183L82.2854 1.03094L73.3424 1.97221C73.2561 1.97968 73.1625 1.99462 73.0762 2.00956L57.8667 4.78854C57.8667 4.78854 36.4626 8.62085 27.2966 17.9065C22.3539 22.5232 21.584 24.1144 21.584 24.1144L15.0441 34.3265L11.2597 40.4298L6.66231 47.8479C6.61914 47.9151 6.57597 47.9823 6.52561 48.0496C6.04356 48.7219 2.69085 53.6001 2.54696 59.8154C2.40307 66.0756 2.38868 75.705 2.38868 76.9675C2.38868 77.072 2.38868 77.1617 2.40307 77.2588C2.45343 77.9162 2.67646 80.5383 3.23045 82.4806C3.75566 84.9085 3.82761 85.2521 3.82761 85.2521L3.98589 85.9917C4.30246 87.4932 3.76286 89.0919 2.52538 89.9286C1.71238 90.4814 0.899383 91.4451 0.575624 93.1409C0.532456 93.3724 0.518066 93.6115 0.518066 93.8431V97.7053C0.518066 97.8696 0.525261 98.0265 0.546845 98.1834C0.669154 99.2292 1.37423 102.621 4.98595 102.703Z" stroke="black" stroke-width="1.4173" stroke-miterlimit="10"/>
</g>
<defs>
<clipPath id="clip0">
<rect width="250" height="123" fill="white"/>
</clipPath>
</defs>
</svg>
