<svg width="64" height="60" viewBox="0 0 64 60" fill="none" xmlns="http://www.w3.org/2000/svg">
<path d="M12.375 48.7493V47.7493H11.375H5.625C3.06458 47.7493 1 45.6844 1 43.1243V5.62427C1 3.06391 3.06455 0.999268 5.625 0.999268H58.375C60.9355 0.999268 63 3.06391 63 5.62427V43.1243C63 45.6844 60.9354 47.7493 58.375 47.7493H25.2875H24.8743L24.5816 48.0409L13.8566 58.7283L13.8438 58.7411L13.8314 58.7543C13.6038 58.9983 13.2379 59.0661 12.9442 58.9355L12.9349 58.9313L12.9256 58.9274C12.5757 58.7802 12.375 58.4632 12.375 58.1243V48.7493Z" fill="#2488FF" stroke="black" stroke-width="2"/>
<path d="M62 7.19231V41.8077C62 44.6807 59.6448 47 56.7266 47H32V2H56.7266C59.6448 2 62 4.31912 62 7.19231Z" fill="#005ECE"/>
<path d="M32 7.49927C22.7001 7.49927 15.125 15.0741 15.125 24.3743C15.125 33.6741 22.7001 41.2493 32 41.2493C41.2999 41.2493 48.875 33.6741 48.875 24.3743C48.875 15.074 41.2999 7.49927 32 7.49927Z" fill="#FEDB41"/>
<path d="M48.875 24.3743C48.875 33.6741 41.2999 41.2493 32 41.2493V7.49927C41.2999 7.49927 48.875 15.074 48.875 24.3743Z" fill="#FCBF29"/>
<path d="M62 5V7C58.8333 5.5 53.4 2.4 57 2C60.6 1.6 61.8333 3.83334 62 5Z" fill="#005ECE"/>
<path d="M38.6377 31.0115C36.8002 32.8116 34.4002 33.7491 32.0001 33.7491C29.5999 33.7491 27.1999 32.8116 25.3624 31.0115C24.6502 30.2616 24.6502 29.0993 25.3624 28.3491C26.1123 27.6366 27.2749 27.6366 28.0248 28.3491C29.1124 29.4741 30.5751 29.9991 32.0001 29.9991C33.4251 29.9991 34.8877 29.4741 35.9753 28.3491C36.7252 27.6366 37.8878 27.6366 38.6377 28.3491C39.3499 29.0993 39.3499 30.2618 38.6377 31.0115Z" fill="#57555C"/>
<path d="M26.375 22.4999C27.4105 22.4999 28.25 21.6604 28.25 20.6249C28.25 19.5893 27.4105 18.7499 26.375 18.7499C25.3395 18.7499 24.5 19.5893 24.5 20.6249C24.5 21.6604 25.3395 22.4999 26.375 22.4999Z" fill="#57555C"/>
<path d="M37.625 22.4999C38.6605 22.4999 39.5 21.6604 39.5 20.6249C39.5 19.5893 38.6605 18.7499 37.625 18.7499C36.5895 18.7499 35.75 19.5893 35.75 20.6249C35.75 21.6604 36.5895 22.4999 37.625 22.4999Z" fill="#3C3A41"/>
<path d="M38.6376 31.0115C36.8001 32.8116 34.4001 33.7491 32 33.7491V29.9991C33.425 29.9991 34.8876 29.4741 35.9753 28.3491C36.7251 27.6366 37.8878 27.6366 38.6376 28.3491C39.3499 29.0993 39.3499 30.2618 38.6376 31.0115Z" fill="#3C3A41"/>
</svg>
