<svg width="64" height="64" viewBox="0 0 64 64" fill="none" xmlns="http://www.w3.org/2000/svg">
<path d="M44.8219 18.2393L56.4293 32.9946L62.7452 27.5591L52.0328 13.6445L44.8219 18.2393Z" fill="#2488FF"/>
<path d="M20.3141 18.2305L7.57093 33.7554L1.255 28.3203L13.1032 13.6445L20.3141 18.2305Z" fill="#2488FF"/>
<path d="M56.4293 32.9946L44.8219 18.2393H35.4254L28.0895 20.3574L20.3141 18.2305L7.57092 33.7554L13.8688 42.2422L13.2032 42.9082C11.9611 44.1499 11.9611 46.1631 13.2032 47.4053C14.2736 48.4756 15.9166 48.6226 17.1456 47.8477L17.1403 47.9961C15.8986 49.2383 15.8986 51.2515 17.1403 52.4937C18.3771 53.7305 20.379 53.7349 21.6222 52.5078L21.6207 52.52C20.3785 53.7622 20.3785 55.7754 21.6207 57.0176C22.8624 58.2593 24.8761 58.2593 26.1178 57.0176L26.7272 56.4082L26.7242 56.4653C25.4821 57.707 25.4821 59.7207 26.7242 60.9624C27.9659 62.2046 29.9796 62.2046 31.2213 60.9624L32.7047 59.479C32.8673 59.3169 33.0739 59.0283 33.3077 58.6485C33.1544 58.9487 32.9537 59.23 32.7047 59.479L32.6964 59.4873L33.9069 60.4624C35.1491 61.7046 37.1622 61.7046 38.4044 60.4624C39.6461 59.2207 39.6461 57.207 38.4044 55.9653L38.4088 55.961C39.6505 57.2027 41.6642 57.2027 42.9059 55.961C44.1481 54.7188 44.1481 52.7056 42.9059 51.4634L42.9108 51.459C44.1525 52.7007 46.1661 52.7007 47.4078 51.459C48.6495 50.2173 48.6495 48.2036 47.4078 46.9619L47.4122 46.957C48.6544 48.1992 50.6676 48.1992 51.9098 46.957C53.1515 45.7153 53.1515 43.7022 51.9098 42.46L56.4293 32.9946Z" fill="#FCC89D"/>
<path d="M63.7393 26.7949L53.0274 12.8799C52.6309 12.3652 51.9078 12.2383 51.3594 12.5869L44.4434 16.9853H35.4234C35.3067 16.9853 35.1905 17.0102 35.0782 17.0429L28.0845 19.0561L20.8277 17.0713L13.7764 12.5869C13.2374 12.2441 12.5274 12.3603 12.1265 12.8574L0.278393 27.5332C-0.147389 28.0605 -0.0770761 28.8305 0.436596 29.2724L6.64656 34.6167L12.2178 42.1245C10.5885 43.8603 10.6202 46.5981 12.3155 48.2939C13.067 49.0449 14.0225 49.4692 15.0054 49.5679C14.9713 49.7905 14.9537 50.0166 14.9537 50.2461C14.9537 51.4307 15.4151 52.5444 16.2525 53.3818C17.0904 54.2197 18.2042 54.6811 19.3887 54.6811C19.4049 54.6811 19.4205 54.6802 19.4361 54.6797C19.4356 54.71 19.4342 54.7397 19.4342 54.77C19.4342 55.9546 19.8956 57.0684 20.733 57.9062C21.5709 58.7437 22.6846 59.2051 23.8692 59.2051C24.1031 59.2051 24.3345 59.186 24.5616 59.1509C24.6578 60.1372 25.0831 61.0972 25.837 61.8511C26.7012 62.7158 27.837 63.1479 28.9727 63.1479C30.1085 63.1479 31.2442 62.7158 32.109 61.8511L32.7872 61.1729L33.0718 61.4023C33.9293 62.2329 35.0426 62.6479 36.1558 62.6479C37.2916 62.6479 38.4273 62.2158 39.2916 61.3511C40.1739 60.4688 40.606 59.3042 40.588 58.1455C41.7462 58.1631 42.9112 57.7314 43.7935 56.8496C44.6749 55.9678 45.107 54.8042 45.0899 53.646C46.2965 53.665 47.441 53.2017 48.295 52.3477C49.1773 51.4653 49.6094 50.3008 49.5914 49.1421C50.7506 49.1597 51.9146 48.728 52.7969 47.8457C54.3028 46.3398 54.4967 44.0122 53.38 42.2939L57.4478 33.7744L63.5635 28.5117C64.0689 28.0766 64.1461 27.3227 63.7393 26.7949ZM13.3751 15.3061L18.4454 18.5303L7.4156 31.9678L2.99568 28.1636L13.3751 15.3061ZM14.0904 43.7964L15.6207 42.2661C15.6671 42.2197 15.7159 42.1758 15.7657 42.1348C16.065 41.8906 16.4273 41.7451 16.8111 41.7104C16.8218 41.7095 16.8331 41.7095 16.8438 41.709C16.8985 41.7046 16.9532 41.7016 17.0084 41.7021C17.5328 41.7095 18.0201 41.9238 18.3814 42.3052C19.0904 43.0547 19.0523 44.2793 18.2965 45.0351L16.8126 46.519C16.0621 47.2695 14.8409 47.2695 14.0904 46.519C13.3399 45.7681 13.3399 44.5469 14.0904 43.7964ZM18.0274 51.6069C17.6636 51.2436 17.4635 50.7603 17.4635 50.2461C17.4635 49.7319 17.6636 49.2485 18.0274 48.8848L20.9947 45.9175C21.5631 45.3491 22.4566 45.1934 23.1832 45.5395C23.9322 45.8965 24.3536 46.7095 24.2437 47.5273C24.1851 47.9639 23.982 48.375 23.6705 48.687L20.7501 51.6069C20.3863 51.9707 19.9029 52.1709 19.3887 52.1709C18.8746 52.1709 18.3912 51.9707 18.0274 51.6069ZM22.5079 56.1309C22.1441 55.7676 21.9439 55.2842 21.9439 54.77C21.9439 54.2559 22.1441 53.7725 22.5079 53.4087L25.4747 50.4414C26.0826 49.834 27.0577 49.7031 27.8018 50.1362C28.4815 50.5317 28.8375 51.3081 28.7208 52.0815C28.6568 52.5068 28.4547 52.9067 28.1505 53.2109L25.2305 56.1309C24.8668 56.4946 24.3834 56.6948 23.8692 56.6948C23.3551 56.6948 22.8717 56.4946 22.5079 56.1309ZM27.6114 60.0762C26.8609 59.3257 26.8609 58.1045 27.6114 57.354L29.1417 55.8237C29.1881 55.7773 29.2364 55.7339 29.2862 55.6929C29.2877 55.6919 29.2886 55.6909 29.2896 55.6899C29.5386 55.4878 29.8311 55.3525 30.1431 55.2935C30.1505 55.2925 30.1578 55.2915 30.1651 55.2905C30.2188 55.2808 30.2735 55.2729 30.3282 55.2681C30.3502 55.2661 30.3721 55.2661 30.3946 55.2646C30.4395 55.2622 30.484 55.2593 30.5294 55.2598C31.0533 55.2671 31.5411 55.481 31.9024 55.8628C31.9468 55.9097 31.9884 55.9585 32.0264 56.0088C32.6036 56.7632 32.526 57.8838 31.8096 58.6006L30.3336 60.0767C29.5831 60.8271 28.3619 60.8267 27.6114 60.0762ZM51.022 46.0708C50.2716 46.8218 49.0504 46.8213 48.2999 46.0708C48.2725 46.0434 48.2437 46.0181 48.2144 45.9941L40.1451 37.8398C39.6573 37.3472 38.8629 37.3432 38.3702 37.831C37.8775 38.3183 37.8736 39.1128 38.3609 39.6055L46.5177 47.8472C46.5186 47.8481 46.5196 47.8491 46.5206 47.8501C47.2711 48.6006 47.2711 49.8223 46.5206 50.5728C46.1568 50.9365 45.6734 51.1367 45.1593 51.1367C44.6446 51.1367 44.1612 50.9365 43.7979 50.5728L38.3414 45.0596C37.8541 44.5669 37.0596 44.563 36.567 45.0503C36.0743 45.5381 36.0704 46.3325 36.5577 46.8252L41.9307 52.2539C41.9581 52.2881 41.9874 52.3208 42.0186 52.352C42.7691 53.1025 42.7691 54.3242 42.0186 55.0747C41.2677 55.8252 40.046 55.8247 39.2955 55.0742L36.3175 52.0649C35.8297 51.5723 35.0352 51.5679 34.5426 52.0557C34.0499 52.543 34.046 53.3374 34.5333 53.8301L37.4283 56.7549C37.4556 56.7891 37.4849 56.8223 37.5167 56.8535C38.2672 57.604 38.2672 58.8257 37.5167 59.5762C36.7662 60.3271 35.545 60.3267 34.7945 59.5762C34.7081 59.4897 34.6065 59.4233 34.5098 59.3491C34.4278 59.2866 34.4063 59.2432 34.4473 59.1436C34.4888 59.0425 34.5509 58.9512 34.5924 58.8496C34.6383 58.7363 34.6754 58.6196 34.7115 58.5024C34.9039 57.8823 34.9605 57.2153 34.8741 56.5718C34.7081 55.3369 34.0289 54.2227 32.9996 53.5176C32.4434 53.1372 31.7999 52.8877 31.1329 52.7939C31.4561 51.3682 31.0679 49.8223 30.0582 48.7554C29.2271 47.8774 28.1046 47.3848 26.897 47.3682C26.8531 47.3677 26.8092 47.3677 26.7647 47.3682C26.7916 46.2158 26.3726 45.0708 25.5782 44.2314C24.7467 43.3535 23.6241 42.8608 22.4171 42.8442C22.0582 42.8393 21.6959 42.8774 21.3463 42.958C21.1968 41.9184 20.6729 40.9565 19.8795 40.2685C19.0909 39.5859 18.0992 39.207 17.043 39.1924C15.9312 39.1763 14.8389 39.5864 14.0133 40.332L9.16218 33.7954L20.7677 19.6567L24.4664 20.6684L19.6358 29.1924C19.0518 30.2231 18.9044 31.4194 19.2203 32.561C19.5362 33.7031 20.2774 34.6533 21.3082 35.2373C21.3726 35.2739 21.4376 35.3086 21.5035 35.3418C21.5084 35.3442 21.5133 35.3467 21.5186 35.3491C21.692 35.4355 21.8702 35.5098 22.0509 35.5723C22.8922 35.8638 23.8009 35.8955 24.6773 35.6533C25.8189 35.3374 26.7691 34.5957 27.3531 33.5654L30.4923 28.0259L36.0972 28.4233L51.0225 43.3481C51.7725 44.0991 51.7725 45.3203 51.022 46.0708ZM51.5421 40.3183L37.5406 26.3174C37.5142 26.2905 37.4864 26.2651 37.4576 26.2412C37.2559 26.0732 37.0059 25.9717 36.7423 25.9531L29.8795 25.4663C29.4049 25.4336 28.9332 25.686 28.6988 26.0996L25.1695 32.3281C24.9161 32.7754 24.5035 33.0972 24.0079 33.2344C23.5128 33.3716 22.9932 33.3071 22.5455 33.0537C22.0982 32.8003 21.7764 32.3877 21.6392 31.8921C21.502 31.3965 21.566 30.8769 21.8199 30.4297L26.5313 22.1147L28.4405 21.5654C28.4532 21.5615 28.4654 21.5566 28.4781 21.5527L35.6036 19.4951H44.213L54.961 33.1582L51.5421 40.3183ZM56.6051 31.1885L46.6656 18.5464L51.7384 15.3203L61.026 27.3843L56.6051 31.1885Z" fill="black"/>
<path d="M38.7731 14.6289C39.0944 14.6289 39.4157 14.5064 39.6608 14.2612L48.233 5.68897C48.7233 5.19873 48.7233 4.4043 48.233 3.91406C47.7428 3.42383 46.9484 3.42383 46.4581 3.91406L37.8859 12.4863C37.3956 12.9766 37.3956 13.771 37.8859 14.2612C38.131 14.5064 38.4523 14.6289 38.7731 14.6289Z" fill="black"/>
<path d="M24.3395 14.2612C24.5846 14.5064 24.9059 14.6289 25.2272 14.6289C25.548 14.6289 25.8693 14.5064 26.1144 14.2612C26.6046 13.771 26.6046 12.9766 26.1144 12.4863L17.5421 3.91406C17.0519 3.42383 16.2574 3.42383 15.7672 3.91406C15.277 4.4043 15.277 5.19873 15.7672 5.68897L24.3395 14.2612Z" fill="black"/>
<path d="M32.0001 14.6289C32.693 14.6289 33.255 14.0669 33.255 13.374V6.27979C33.255 5.58691 32.693 5.0249 32.0001 5.0249C31.3073 5.0249 30.7452 5.58691 30.7452 6.27979V13.374C30.7452 14.0669 31.3073 14.6289 32.0001 14.6289Z" fill="black"/>
<path d="M30.8419 1.73143C31.0411 2.21434 31.5377 2.53124 32.0616 2.5039C32.5792 2.47704 33.0338 2.12743 33.194 1.63476C33.3546 1.13817 33.1798 0.572255 32.7638 0.255848C32.3395 -0.0673938 31.7477 -0.0854602 31.3038 0.207997C30.8087 0.535145 30.6168 1.18651 30.8419 1.73143Z" fill="black"/>
</svg>
