<svg width="30" height="30" viewBox="0 0 30 30" fill="none" xmlns="http://www.w3.org/2000/svg">
<rect x="1" y="1" width="28" height="28" rx="9" fill="black" stroke="black" stroke-width="2"/>
<path d="M6.21036 10.1018C6.84589 10.1018 7.81431 10.1018 8.35905 10.1018C8.63142 10.1018 8.84326 10.2789 8.93405 10.5149C9.20642 11.2821 9.81168 12.9641 10.5077 14.1149C11.4459 15.6198 12.0512 16.1805 12.4446 16.1215C12.838 16.033 12.7169 15.0297 12.7169 14.233C12.7169 13.4362 12.8077 12.0789 12.4143 11.4592L11.809 10.6034C11.6577 10.3969 11.809 10.1313 12.0512 10.1313H15.5012C15.834 10.1313 16.1064 10.3969 16.1064 10.7215V15.0002C16.1064 15.0002 16.2577 15.7674 17.1051 14.9707C17.9525 14.1739 18.8604 12.6985 19.6169 11.1936L19.9196 10.4854C20.0104 10.2789 20.2222 10.1313 20.4643 10.1313H22.7038C23.1275 10.1313 23.4301 10.5444 23.2788 10.928L23.0367 11.5477C23.0367 11.5477 22.2196 13.1412 21.3722 14.2625C20.5248 15.4133 20.3433 15.6789 20.4643 15.9739C20.5854 16.269 22.7643 18.2461 23.309 19.1903C23.4604 19.4559 23.5814 19.692 23.7025 19.8985C23.9143 20.2821 23.6117 20.7838 23.1577 20.7838H20.6156C20.4038 20.7838 20.1919 20.6657 20.1012 20.4887L19.859 20.1051C19.859 20.1051 18.3156 18.3346 17.3775 17.7739C16.409 17.2428 16.4393 18.01 16.4393 18.01V19.5739C16.4393 20.2231 15.8946 20.7543 15.2288 20.7543H14.6235C14.6235 20.7543 11.2946 20.7543 8.63142 16.8887C6.54326 13.8789 5.84721 11.9313 5.6051 10.81C5.54457 10.4559 5.81694 10.1018 6.21036 10.1018Z" fill="white"/>
</svg>
