<svg width="30" height="30" viewBox="0 0 30 30" fill="none" xmlns="http://www.w3.org/2000/svg">
<path d="M21.8792 0H8.12071C3.64288 0 0 3.64288 0 8.12071V21.8795C0 26.3571 3.64288 29.9999 8.12071 29.9999H21.8795C26.3571 29.9999 29.9999 26.3571 29.9999 21.8795V8.12071C29.9999 3.64288 26.3571 0 21.8792 0V0ZM28.2412 21.8795C28.2412 25.3873 25.3873 28.2412 21.8792 28.2412H8.12071C4.61265 28.2412 1.75872 25.3873 1.75872 21.8795V8.12071C1.75872 4.61265 4.61265 1.75872 8.12071 1.75872H21.8795C25.3873 1.75872 28.2412 4.61265 28.2412 8.12071V21.8795Z" fill="black"/>
<path d="M14.9998 6.79688C10.4766 6.79688 6.79688 10.4766 6.79688 14.9998C6.79688 19.5229 10.4766 23.2026 14.9998 23.2026C19.5229 23.2026 23.2026 19.5229 23.2026 14.9998C23.2026 10.4766 19.5229 6.79688 14.9998 6.79688V6.79688ZM14.9998 21.4439C11.4466 21.4439 8.5556 18.5531 8.5556 14.9998C8.5556 11.4466 11.4466 8.5556 14.9998 8.5556C18.5531 8.5556 21.4439 11.4466 21.4439 14.9998C21.4439 18.5531 18.5531 21.4439 14.9998 21.4439V21.4439Z" fill="black"/>
<path d="M23.399 3.88403C22.0623 3.88403 20.9751 4.97145 20.9751 6.30789C20.9751 7.64455 22.0623 8.73197 23.399 8.73197C24.7356 8.73197 25.823 7.64455 25.823 6.30789C25.823 4.97122 24.7356 3.88403 23.399 3.88403ZM23.399 6.97302C23.0323 6.97302 22.7338 6.67455 22.7338 6.30789C22.7338 5.94099 23.0323 5.64276 23.399 5.64276C23.7658 5.64276 24.0643 5.94099 24.0643 6.30789C24.0643 6.67455 23.7658 6.97302 23.399 6.97302Z" fill="black"/>
</svg>
