<svg width="60" height="60" viewBox="0 0 60 60" fill="none" xmlns="http://www.w3.org/2000/svg">
<path d="M59 26V41L55 53H39V46L42.88 32.82L43.58 30.44C43.7 30.0239 43.9523 29.6582 44.2988 29.3984C44.6452 29.1386 45.0669 28.9987 45.5 29H46C46.5299 29.0016 47.0377 29.2128 47.4125 29.5875C47.7872 29.9623 47.9984 30.4701 48 31V43L53 34V26L48.75 11.56C48.6631 11.2619 48.6467 10.9477 48.7023 10.6422C48.7578 10.3368 48.8837 10.0484 49.07 9.80001C49.2563 9.55162 49.4979 9.35001 49.7756 9.21115C50.0533 9.0723 50.3595 9.00001 50.67 9.00001H51.58C51.9939 8.99886 52.398 9.12617 52.7365 9.36439C53.0751 9.60261 53.3313 9.93999 53.47 10.33L59 26Z" fill="#FFDAAA"/>
<path d="M59 26V41L55 53H51L55 41V26L49.47 10.33C49.3926 10.1117 49.2775 9.90859 49.13 9.73001C49.3162 9.50145 49.5511 9.31732 49.8175 9.19103C50.0839 9.06475 50.3752 8.99949 50.67 9.00001H51.58C51.9939 8.99886 52.398 9.12617 52.7366 9.36439C53.0751 9.60261 53.3313 9.93999 53.47 10.33L59 26Z" fill="#FFC477"/>
<path d="M36 53H58V59H36V53Z" fill="#FFDE55"/>
<path d="M54 53H58V59H54V53Z" fill="#B39A7C"/>
<path d="M42.88 32.81V32.82L40.47 41H19.5301L17.1201 32.81C17.5863 31.0817 18.6999 29.5991 20.2301 28.67C20.821 28.4142 21.438 28.2231 22.0701 28.1C22.3001 28.05 23.0001 28 23.0001 28H37C37 28 37.7 28.05 37.93 28.1C38.5625 28.2265 39.1794 28.4209 39.77 28.68C41.2957 29.6094 42.4084 31.0869 42.88 32.81Z" fill="#2488FF"/>
<path d="M42.88 32.81V32.82L40.47 41H36.47L38.88 32.82V32.81C38.4083 31.0869 37.2957 29.6094 35.77 28.68C35.1794 28.4209 34.5624 28.2265 33.93 28.1C33.7 28.05 33 28 33 28H37C37 28 37.7 28.05 37.93 28.1C38.5624 28.2265 39.1794 28.4209 39.77 28.68C41.2957 29.6094 42.4083 31.0869 42.88 32.81Z" fill="#005ECE"/>
<path d="M43 18C42.9716 21.7964 41.8502 25.5042 39.77 28.68C38.9933 29.8955 38.0697 31.0106 37.02 32C37.4508 30.7331 37.7556 29.4268 37.93 28.1C37.9785 27.7354 38.0019 27.3678 38 27C38.1082 23.8285 37.2991 20.6932 35.67 17.97C35.8871 17.3358 35.9986 16.6703 36 16V10L28 8L24 10V16C23.9956 16.6675 24.1073 17.3307 24.33 17.96V17.97C22.7009 20.6932 21.8918 23.8285 22 27C21.9981 27.3678 22.0215 27.7354 22.07 28.1C22.251 29.4274 22.5625 30.7337 23 32C21.9466 31.005 21.0166 29.887 20.23 28.67C18.1542 25.4958 17.0331 21.7925 17 18C17 8.63 22.89 1 30 1C37.11 1 43 8.63 43 18Z" fill="#FFA733"/>
<path d="M43 18C42.9716 21.7964 41.8502 25.5042 39.77 28.68C38.9933 29.8955 38.0697 31.0106 37.02 32C37.398 30.8577 37.6855 29.6874 37.88 28.5C39.891 25.365 40.9728 21.7245 41 18C41 9.07 35.65 1.73 29 1.06C29.3318 1.01979 29.6658 0.999756 30 1C37.11 1 43 8.63 43 18Z" fill="#FF9811"/>
<path d="M37 28L30 32L23 28L27 25V21.19C27.9108 21.7205 28.946 21.9999 30 21.9999C31.054 21.9999 32.0892 21.7205 33 21.19V25L37 28Z" fill="#FFDAAA"/>
<path d="M36 10V16C35.9986 16.6703 35.8871 17.3358 35.67 17.97C35.1935 19.328 34.2463 20.4703 33 21.19C32.0892 21.7205 31.054 21.9999 30 21.9999C28.946 21.9999 27.9108 21.7205 27 21.19C25.7537 20.4703 24.8065 19.328 24.33 17.97V17.96C24.1073 17.3307 23.9956 16.6675 24 16V10L28 8L36 10Z" fill="#FFDAAA"/>
<path d="M36 10V16C35.9986 16.6703 35.8871 17.3358 35.67 17.97C35.1935 19.328 34.2462 20.4703 33 21.19C32.0911 21.7252 31.0547 22.005 30 22C29.6651 21.999 29.3307 21.9723 29 21.92C29.706 21.8024 30.3841 21.5549 31 21.19C32.2462 20.4703 33.1935 19.328 33.67 17.97C33.8871 17.3358 33.9986 16.6703 34 16V10L27.33 8.33L28 8L36 10Z" fill="#FFC477"/>
<path d="M2 53H24V59H2V53Z" fill="#FFDE55"/>
<path d="M21 46V53H5L1 41V26L6.53 10.33C6.66867 9.93999 6.92493 9.60261 7.26345 9.36439C7.60197 9.12617 8.00607 8.99886 8.42 9.00001H9.33C9.64049 9.00001 9.94672 9.0723 10.2244 9.21115C10.5021 9.35001 10.7437 9.55162 10.93 9.80001C11.1163 10.0484 11.2422 10.3368 11.2977 10.6422C11.3533 10.9477 11.3369 11.2619 11.25 11.56L7 26V34L12 43V31C12.0016 30.4701 12.2128 29.9623 12.5875 29.5875C12.9623 29.2128 13.4701 29.0016 14 29H14.5C14.9331 28.9987 15.3548 29.1386 15.7012 29.3984C16.0477 29.6582 16.3 30.0239 16.42 30.44L21 46Z" fill="#FFDAAA"/>
<path d="M20 53H24V59H20V53Z" fill="#B39A7C"/>
<path d="M21 46V53H17V46L12.42 30.44C12.3799 30.3002 12.3228 30.1659 12.25 30.04C12.4219 29.7259 12.675 29.4636 12.9828 29.2807C13.2906 29.0978 13.6419 29.0008 14 29H14.5C14.9331 28.9987 15.3548 29.1386 15.7012 29.3984C16.0477 29.6582 16.3 30.0239 16.42 30.44L21 46Z" fill="#FFC477"/>
<path d="M14 6H16V4H18V2H16V0H14V2H12V4H14V6Z" fill="black"/>
<path d="M2.00006 9H4.00006V7H6.00006V5H4.00006V3H2.00006V5H6.10352e-05V7H2.00006V9Z" fill="black"/>
<path d="M44 6H46V4H48V2H46V0H44V2H42V4H44V6Z" fill="black"/>
<path d="M58 5V3H56V5H54V7H56V9H58V7H60V5H58Z" fill="black"/>
<path d="M59.94 25.67L54.41 10C54.2031 9.41484 53.8198 8.90826 53.313 8.55006C52.8061 8.19186 52.2007 7.99967 51.58 8H50.67C50.2041 7.99875 49.7443 8.10664 49.3275 8.31502C48.9108 8.5234 48.5486 8.82649 48.27 9.2C47.9908 9.57464 47.8021 10.0089 47.7188 10.4686C47.6356 10.9284 47.6599 11.4012 47.79 11.85L52 26.14V33.74L49 39.14V31C48.9976 30.2051 48.6808 29.4434 48.1187 28.8813C47.5566 28.3192 46.7949 28.0024 46 28H45.5C44.8895 28.0038 44.2946 28.1934 43.7945 28.5435C43.2943 28.8936 42.9126 29.3877 42.7 29.96C42.2665 29.3516 41.7401 28.8151 41.14 28.37C42.9933 25.227 43.9802 21.6487 44 18C44 8.07 37.72 0 30 0C22.28 0 16 8.07 16 18C16.0195 21.6438 17.0102 25.2165 18.87 28.35C18.2668 28.7947 17.7371 29.3312 17.3 29.94C17.0834 29.372 16.7001 28.8827 16.2004 28.5365C15.7007 28.1903 15.1079 28.0033 14.5 28H14C13.2051 28.0024 12.4434 28.3192 11.8813 28.8813C11.3192 29.4434 11.0024 30.2051 11 31V39.14L8.00001 33.74V26.14L12.21 11.85C12.3401 11.4012 12.3645 10.9284 12.2812 10.4686C12.1979 10.0089 12.0092 9.57464 11.73 9.2C11.4514 8.82649 11.0893 8.5234 10.6725 8.31502C10.2557 8.10664 9.79596 7.99875 9.33001 8H8.42001C7.79935 7.99967 7.19388 8.19186 6.68702 8.55006C6.18017 8.90826 5.79689 9.41484 5.59001 10L0.0600061 25.67C0.019932 25.7754 -0.000406654 25.8873 6.16018e-06 26V41C0.00194857 41.1085 0.0187723 41.2161 0.0500061 41.32L3.61001 52H2.00001C1.73479 52 1.48044 52.1054 1.2929 52.2929C1.10536 52.4804 1.00001 52.7348 1.00001 53V59C1.00001 59.2652 1.10536 59.5196 1.2929 59.7071C1.48044 59.8946 1.73479 60 2.00001 60H24C24.2652 60 24.5196 59.8946 24.7071 59.7071C24.8946 59.5196 25 59.2652 25 59V53C25 52.7348 24.8946 52.4804 24.7071 52.2929C24.5196 52.1054 24.2652 52 24 52H22V46C22.0022 45.9051 21.9886 45.8105 21.96 45.72L20.87 42H39.13L38.04 45.72C38.0114 45.8105 37.9979 45.9051 38 46V52H36C35.7348 52 35.4804 52.1054 35.2929 52.2929C35.1054 52.4804 35 52.7348 35 53V59C35 59.2652 35.1054 59.5196 35.2929 59.7071C35.4804 59.8946 35.7348 60 36 60H58C58.2652 60 58.5196 59.8946 58.7071 59.7071C58.8947 59.5196 59 59.2652 59 59V53C59 52.7348 58.8947 52.4804 58.7071 52.2929C58.5196 52.1054 58.2652 52 58 52H56.39L59.95 41.32C59.9812 41.2161 59.9981 41.1085 60 41V26C60.0004 25.8873 59.9801 25.7754 59.94 25.67ZM18 18C18 9.18 23.38 2 30 2C36.62 2 42 9.18 42 18C41.9823 21.6017 40.9193 25.1208 38.94 28.13C38.9805 27.7547 39.0005 27.3775 39 27C39.0877 23.7935 38.3105 20.6225 36.75 17.82C36.9149 17.2273 36.999 16.6152 37 16V10C36.9998 9.77667 36.9249 9.55982 36.7872 9.38403C36.6494 9.20823 36.4568 9.0836 36.24 9.03L28.24 7.03C28.008 6.97134 27.7625 6.9998 27.55 7.11L23.55 9.11C23.3834 9.19095 23.2432 9.3176 23.1458 9.47517C23.0485 9.63275 22.9979 9.81477 23 10V16C23.0011 16.6152 23.0852 17.2273 23.25 17.82C21.6895 20.6225 20.9123 23.7935 21 27C20.9995 27.3708 21.0195 27.7414 21.06 28.11C19.0848 25.1063 18.022 21.5948 18 18ZM26 21.74V24.5L23.01 26.74C22.9971 24.4525 23.4389 22.1852 24.31 20.07C24.7802 20.7136 25.3509 21.2775 26 21.74ZM25 16V10.62L28.12 9.06L35 10.78V16C35 17.3261 34.4732 18.5979 33.5355 19.5355C32.5979 20.4732 31.3261 21 30 21C28.6739 21 27.4022 20.4732 26.4645 19.5355C25.5268 18.5979 25 17.3261 25 16ZM27.6 25.8C27.7234 25.7061 27.8236 25.5852 27.893 25.4465C27.9623 25.3078 27.9989 25.1551 28 25V22.71C29.3053 23.0966 30.6947 23.0966 32 22.71V25C32.0011 25.1551 32.0377 25.3078 32.107 25.4465C32.1764 25.5852 32.2766 25.7061 32.4 25.8L35.18 27.89L30 30.85L24.82 27.89L27.6 25.8ZM34 24.5V21.74C34.6492 21.2775 35.2198 20.7136 35.69 20.07C36.5611 22.1852 37.003 24.4525 36.99 26.74L34 24.5ZM2.00001 40.84V26.17L7.47001 10.67C7.53878 10.4732 7.66732 10.3029 7.83765 10.1828C8.00798 10.0626 8.21158 9.99875 8.42001 10H9.33001C9.48525 10 9.63836 10.0361 9.77722 10.1056C9.91607 10.175 10.0369 10.2758 10.13 10.4C10.2232 10.5242 10.2861 10.6684 10.3139 10.8211C10.3416 10.9739 10.3335 11.131 10.29 11.28L6.04001 25.72C6.01136 25.8105 5.99785 25.9051 6.00001 26V34C5.998 34.1721 6.04295 34.3415 6.13001 34.49L11.13 43.49C11.2388 43.6819 11.4079 43.8324 11.6111 43.9182C11.8143 44.004 12.0401 44.0202 12.2535 43.9643C12.4668 43.9084 12.6557 43.7835 12.7907 43.6091C12.9258 43.4347 12.9993 43.2206 13 43V31C13 30.7348 13.1054 30.4804 13.2929 30.2929C13.4804 30.1054 13.7348 30 14 30H14.5C14.7164 30 14.9269 30.0702 15.1 30.2C15.2731 30.3298 15.3994 30.5123 15.46 30.72L20 46.14V52H5.72001L2.00001 40.84ZM23 54V58H3.00001V54H23ZM20.28 40L18.16 32.79C18.4316 31.6933 19.0659 30.7207 19.96 30.03C20.6542 31.0068 21.4449 31.9114 22.32 32.73C22.4834 32.8741 22.6904 32.9592 22.9079 32.9719C23.1254 32.9846 23.3409 32.9241 23.52 32.8C23.7057 32.6707 23.8455 32.4858 23.9192 32.2719C23.9929 32.058 23.9967 31.8262 23.93 31.61C23.7 30.86 23.46 30.1 23.29 29.31L29.5 32.87C29.6529 32.9552 29.825 32.9999 30 32.9999C30.175 32.9999 30.3471 32.9552 30.5 32.87L36.72 29.31C36.54 30.15 36.3 30.95 36.06 31.71C35.9961 31.9208 36.0036 32.1469 36.0813 32.3531C36.1591 32.5592 36.3028 32.7339 36.49 32.85C36.6495 32.9479 36.8329 32.9999 37.02 33C37.2731 33.0015 37.5169 32.9047 37.7 32.73C38.5688 31.9183 39.3528 31.0203 40.04 30.05C40.9333 30.7329 41.568 31.699 41.84 32.79L39.72 40H20.28ZM57 54V58H37V54H57ZM58 40.84L54.28 52H40V46.14L44.54 30.72C44.6006 30.5123 44.7269 30.3298 44.9 30.2C45.0731 30.0702 45.2836 30 45.5 30H46C46.2652 30 46.5196 30.1054 46.7071 30.2929C46.8947 30.4804 47 30.7348 47 31V43C47.0007 43.2206 47.0742 43.4347 47.2093 43.6091C47.3443 43.7835 47.5332 43.9084 47.7465 43.9643C47.9599 44.0202 48.1857 44.004 48.3889 43.9182C48.5921 43.8324 48.7613 43.6819 48.87 43.49L53.87 34.49C53.9571 34.3415 54.002 34.1721 54 34V26C54.0022 25.9051 53.9886 25.8105 53.96 25.72L49.71 11.28C49.6665 11.131 49.6584 10.9739 49.6861 10.8211C49.7139 10.6684 49.7769 10.5242 49.87 10.4C49.9632 10.2758 50.0839 10.175 50.2228 10.1056C50.3616 10.0361 50.5148 10 50.67 10H51.58C51.7884 9.99875 51.992 10.0626 52.1624 10.1828C52.3327 10.3029 52.4612 10.4732 52.53 10.67L58 26.17V40.84Z" fill="black"/>
<path d="M27 12H29V14H27V12Z" fill="black"/>
<path d="M31 12H33V14H31V12Z" fill="black"/>
</svg>
