<svg width="182" height="49" viewBox="0 0 182 49" fill="none" xmlns="http://www.w3.org/2000/svg">
<path d="M82.1462 7.408L82.3622 6.4H87.9602L87.7442 7.408H85.8002L83.5502 17.992H88.3382L88.7882 17.596L89.3102 15.112H90.6062L89.7782 19H79.6982L79.8962 17.992H81.5342L83.7842 7.408H82.1462ZM92.2196 10.522V9.55H95.4776L93.6056 18.028H95.0816V19H91.6076L93.5336 10.522H92.2196ZM93.4256 6.634C93.4256 6.286 93.5456 6.01 93.7856 5.806C94.0376 5.602 94.3556 5.5 94.7396 5.5C95.1476 5.5 95.4656 5.602 95.6936 5.806C95.9336 6.01 96.0536 6.286 96.0536 6.634C96.0536 6.982 95.9336 7.258 95.6936 7.462C95.4656 7.666 95.1476 7.768 94.7396 7.768C94.3556 7.768 94.0376 7.666 93.7856 7.462C93.5456 7.258 93.4256 6.982 93.4256 6.634ZM102.977 19.99C102.977 19.654 102.821 19.372 102.509 19.144C102.209 18.928 101.789 18.748 101.249 18.604C100.709 18.448 100.067 18.322 99.3231 18.226C98.5911 18.13 97.7931 18.04 96.9291 17.956L98.7111 15.454C98.5431 15.37 98.3691 15.268 98.1891 15.148C98.0211 15.016 97.8711 14.854 97.7391 14.662C97.6071 14.47 97.4991 14.248 97.4151 13.996C97.3311 13.732 97.2891 13.432 97.2891 13.096C97.2891 12.508 97.3971 11.986 97.6131 11.53C97.8411 11.062 98.1591 10.672 98.5671 10.36C98.9751 10.036 99.4551 9.79 100.007 9.622C100.571 9.454 101.195 9.37 101.879 9.37H106.775V10.342H104.813C104.897 10.486 104.963 10.708 105.011 11.008C105.059 11.308 105.083 11.602 105.083 11.89C105.083 12.55 104.957 13.132 104.705 13.636C104.465 14.128 104.141 14.548 103.733 14.896C103.325 15.232 102.851 15.49 102.311 15.67C101.783 15.838 101.231 15.922 100.655 15.922C100.403 15.922 100.151 15.91 99.8991 15.886C99.6471 15.862 99.4791 15.826 99.3951 15.778L98.6031 16.894C99.2511 16.942 99.9411 17.002 100.673 17.074C101.405 17.146 102.077 17.272 102.689 17.452C103.313 17.632 103.829 17.884 104.237 18.208C104.645 18.532 104.849 18.964 104.849 19.504C104.849 20.032 104.705 20.5 104.417 20.908C104.129 21.316 103.745 21.658 103.265 21.934C102.797 22.21 102.251 22.42 101.627 22.564C101.003 22.708 100.355 22.78 99.6831 22.78C99.1071 22.78 98.5611 22.726 98.0451 22.618C97.5411 22.51 97.0911 22.354 96.6951 22.15C96.3111 21.958 96.0111 21.724 95.7951 21.448C95.5671 21.184 95.4531 20.884 95.4531 20.548C95.4531 20.152 95.5851 19.822 95.8491 19.558C96.1131 19.294 96.4131 19.108 96.7491 19H97.7391C97.5711 19.144 97.4331 19.318 97.3251 19.522C97.2291 19.738 97.1811 19.942 97.1811 20.134C97.1811 20.422 97.2651 20.668 97.4331 20.872C97.6011 21.088 97.8171 21.262 98.0811 21.394C98.3451 21.538 98.6391 21.64 98.9631 21.7C99.2991 21.772 99.6351 21.808 99.9711 21.808C100.463 21.808 100.895 21.754 101.267 21.646C101.639 21.55 101.951 21.412 102.203 21.232C102.455 21.064 102.647 20.872 102.779 20.656C102.911 20.44 102.977 20.218 102.977 19.99ZM101.969 10.27C101.081 10.27 100.355 10.51 99.7911 10.99C99.2391 11.458 98.9631 12.202 98.9631 13.222C98.9631 13.546 99.0111 13.828 99.1071 14.068C99.2151 14.308 99.3471 14.512 99.5031 14.68C99.6711 14.836 99.8571 14.956 100.061 15.04C100.277 15.112 100.493 15.148 100.709 15.148C101.117 15.148 101.489 15.076 101.825 14.932C102.173 14.788 102.467 14.59 102.707 14.338C102.947 14.074 103.133 13.762 103.265 13.402C103.397 13.042 103.463 12.64 103.463 12.196C103.463 11.74 103.415 11.356 103.319 11.044C103.235 10.72 103.109 10.462 102.941 10.27H101.969ZM108.091 6.472V5.5H111.349L110.071 11.062H110.179C110.635 10.594 111.145 10.198 111.709 9.874C112.273 9.538 112.951 9.37 113.743 9.37C114.967 9.37 115.579 10.09 115.579 11.53C115.579 11.878 115.543 12.25 115.471 12.646C115.411 13.03 115.333 13.402 115.237 13.762L114.139 18.028H115.669V19H112.303L113.437 14.086C113.533 13.702 113.617 13.336 113.689 12.988C113.773 12.64 113.815 12.31 113.815 11.998C113.815 11.554 113.719 11.206 113.527 10.954C113.347 10.702 113.065 10.576 112.681 10.576C112.405 10.576 112.135 10.618 111.871 10.702C111.607 10.774 111.355 10.87 111.115 10.99C110.875 11.11 110.653 11.248 110.449 11.404C110.245 11.56 110.071 11.716 109.927 11.872L108.451 19H106.723L109.387 6.472H108.091ZM117.911 9.55H119.819L120.341 7.48H122.033L121.547 9.55H123.977V10.522H121.349L119.945 15.958C119.885 16.198 119.843 16.414 119.819 16.606C119.795 16.798 119.783 16.996 119.783 17.2C119.783 17.752 120.095 18.028 120.719 18.028C121.043 18.028 121.409 17.956 121.817 17.812C122.225 17.656 122.585 17.44 122.897 17.164L123.275 17.884C123.143 18.028 122.957 18.178 122.717 18.334C122.489 18.49 122.225 18.634 121.925 18.766C121.625 18.886 121.295 18.982 120.935 19.054C120.575 19.138 120.203 19.18 119.819 19.18C119.231 19.18 118.775 19.036 118.451 18.748C118.127 18.46 117.965 18.094 117.965 17.65C117.965 17.458 117.971 17.26 117.983 17.056C117.995 16.84 118.031 16.618 118.091 16.39L119.567 10.522H117.911V9.55ZM133.876 17.992L133.66 19H128.53L128.728 17.992H130.366L132.616 7.408H130.978L131.194 6.4H136.342L136.126 7.408H134.632L133.66 12.034H139.96L140.932 7.408H139.438L139.654 6.4H144.802L144.586 7.408H142.948L140.698 17.992H142.336L142.12 19H136.99L137.188 17.992H138.682L139.744 13.042H133.444L132.382 17.992H133.876ZM144.272 15.49C144.272 14.818 144.38 14.122 144.596 13.402C144.824 12.67 145.16 12.01 145.604 11.422C146.06 10.834 146.624 10.348 147.296 9.964C147.98 9.568 148.778 9.37 149.69 9.37C150.734 9.37 151.52 9.676 152.048 10.288C152.576 10.9 152.84 11.794 152.84 12.97C152.84 13.798 152.714 14.584 152.462 15.328C152.21 16.072 151.856 16.726 151.4 17.29C150.944 17.854 150.398 18.31 149.762 18.658C149.126 19.006 148.418 19.18 147.638 19.18C146.618 19.18 145.802 18.868 145.19 18.244C144.578 17.608 144.272 16.69 144.272 15.49ZM149.294 10.216C148.874 10.216 148.502 10.306 148.178 10.486C147.854 10.666 147.578 10.912 147.35 11.224C147.122 11.524 146.93 11.872 146.774 12.268C146.618 12.652 146.492 13.06 146.396 13.492C146.3 13.912 146.234 14.332 146.198 14.752C146.162 15.16 146.144 15.55 146.144 15.922C146.144 16.618 146.306 17.194 146.63 17.65C146.966 18.106 147.422 18.334 147.998 18.334C148.454 18.334 148.862 18.166 149.222 17.83C149.594 17.494 149.906 17.068 150.158 16.552C150.422 16.024 150.62 15.424 150.752 14.752C150.896 14.08 150.968 13.39 150.968 12.682C150.968 11.938 150.83 11.344 150.554 10.9C150.29 10.444 149.87 10.216 149.294 10.216ZM163.361 18.028V19H160.049L160.427 16.876H160.355C160.175 17.128 159.953 17.392 159.689 17.668C159.425 17.932 159.125 18.178 158.789 18.406C158.465 18.622 158.105 18.808 157.709 18.964C157.325 19.108 156.917 19.18 156.485 19.18C155.933 19.18 155.495 19.036 155.171 18.748C154.847 18.448 154.685 18.016 154.685 17.452C154.685 17.284 154.697 17.068 154.721 16.804C154.757 16.528 154.811 16.216 154.883 15.868L156.017 10.522H154.775V9.55H158.015L156.773 14.932C156.701 15.244 156.629 15.58 156.557 15.94C156.485 16.288 156.449 16.63 156.449 16.966C156.449 17.326 156.527 17.596 156.683 17.776C156.839 17.944 157.043 18.028 157.295 18.028C157.703 18.028 158.087 17.932 158.447 17.74C158.819 17.548 159.149 17.326 159.437 17.074C159.737 16.81 159.983 16.54 160.175 16.264C160.379 15.988 160.529 15.76 160.625 15.58L161.831 9.55H163.541L161.903 18.028H163.361ZM167.728 18.208C167.944 18.208 168.172 18.19 168.412 18.154C168.664 18.106 168.892 18.028 169.096 17.92C169.3 17.812 169.468 17.668 169.6 17.488C169.732 17.296 169.798 17.056 169.798 16.768C169.798 16.468 169.702 16.204 169.51 15.976C169.33 15.748 169.102 15.532 168.826 15.328C168.55 15.112 168.244 14.902 167.908 14.698C167.584 14.482 167.284 14.254 167.008 14.014C166.732 13.762 166.498 13.48 166.306 13.168C166.126 12.856 166.036 12.49 166.036 12.07C166.036 11.626 166.138 11.236 166.342 10.9C166.546 10.552 166.822 10.27 167.17 10.054C167.518 9.826 167.932 9.658 168.412 9.55C168.892 9.43 169.402 9.37 169.942 9.37C170.194 9.37 170.44 9.388 170.68 9.424C170.932 9.46 171.16 9.508 171.364 9.568C171.58 9.616 171.766 9.676 171.922 9.748C172.078 9.82 172.192 9.886 172.264 9.946L171.724 12.052H170.608L170.914 10.576C170.818 10.504 170.644 10.45 170.392 10.414C170.152 10.366 169.942 10.342 169.762 10.342C169.57 10.342 169.36 10.36 169.132 10.396C168.916 10.42 168.712 10.48 168.52 10.576C168.328 10.66 168.166 10.786 168.034 10.954C167.914 11.11 167.854 11.32 167.854 11.584C167.854 11.908 167.944 12.19 168.124 12.43C168.316 12.67 168.556 12.892 168.844 13.096C169.132 13.3 169.438 13.504 169.762 13.708C170.086 13.912 170.392 14.14 170.68 14.392C170.968 14.632 171.202 14.914 171.382 15.238C171.574 15.55 171.67 15.928 171.67 16.372C171.67 16.828 171.55 17.23 171.31 17.578C171.07 17.926 170.752 18.22 170.356 18.46C169.96 18.7 169.498 18.88 168.97 19C168.454 19.12 167.92 19.18 167.368 19.18C167.056 19.18 166.744 19.15 166.432 19.09C166.132 19.03 165.85 18.958 165.586 18.874C165.334 18.778 165.112 18.682 164.92 18.586C164.74 18.478 164.614 18.388 164.542 18.316L165.226 16.174H166.45L165.982 17.668C166.114 17.8 166.33 17.926 166.63 18.046C166.93 18.154 167.296 18.208 167.728 18.208ZM180.736 17.272C180.604 17.512 180.424 17.746 180.196 17.974C179.968 18.202 179.698 18.406 179.386 18.586C179.074 18.766 178.726 18.91 178.342 19.018C177.958 19.126 177.544 19.18 177.1 19.18C176.068 19.18 175.24 18.892 174.616 18.316C174.004 17.728 173.698 16.906 173.698 15.85C173.698 14.95 173.83 14.104 174.094 13.312C174.358 12.52 174.73 11.836 175.21 11.26C175.69 10.684 176.266 10.228 176.938 9.892C177.622 9.544 178.378 9.37 179.206 9.37C179.53 9.37 179.836 9.412 180.124 9.496C180.412 9.568 180.664 9.682 180.88 9.838C181.096 9.994 181.264 10.186 181.384 10.414C181.504 10.642 181.564 10.906 181.564 11.206C181.564 12.07 181.108 12.766 180.196 13.294C179.284 13.822 177.79 14.158 175.714 14.302C175.666 14.518 175.63 14.722 175.606 14.914C175.582 15.106 175.57 15.298 175.57 15.49C175.57 16.246 175.762 16.852 176.146 17.308C176.542 17.752 177.118 17.974 177.874 17.974C178.114 17.974 178.348 17.938 178.576 17.866C178.816 17.794 179.044 17.704 179.26 17.596C179.476 17.476 179.668 17.344 179.836 17.2C180.016 17.056 180.16 16.918 180.268 16.786L180.736 17.272ZM178.612 10.216C178.048 10.216 177.532 10.468 177.064 10.972C176.596 11.464 176.194 12.292 175.858 13.456C177.13 13.42 178.102 13.21 178.774 12.826C179.458 12.442 179.8 11.926 179.8 11.278C179.8 11.146 179.782 11.02 179.746 10.9C179.71 10.768 179.644 10.654 179.548 10.558C179.464 10.45 179.344 10.366 179.188 10.306C179.044 10.246 178.852 10.216 178.612 10.216Z" fill="#292929"/>
<path d="M80 24L182 24" stroke="black"/>
<path d="M86.2307 44.992L86.0147 46H80.8847L81.0827 44.992H82.7207L84.9707 34.408H83.3327L83.5487 33.4H88.6967L88.4807 34.408H86.9867L86.0147 39.034H92.3147L93.2867 34.408H91.7927L92.0087 33.4H97.1567L96.9407 34.408H95.3027L93.0527 44.992H94.6907L94.4747 46H89.3447L89.5427 44.992H91.0367L92.0987 40.042H85.7987L84.7367 44.992H86.2307ZM106.203 40.906C106.203 39.934 106.353 38.986 106.653 38.062C106.965 37.126 107.433 36.298 108.057 35.578C108.693 34.858 109.491 34.282 110.451 33.85C111.411 33.406 112.539 33.184 113.835 33.184C114.639 33.184 115.377 33.304 116.049 33.544C116.721 33.772 117.291 34.108 117.759 34.552C118.239 34.996 118.611 35.53 118.875 36.154C119.139 36.778 119.271 37.474 119.271 38.242C119.271 39.202 119.139 40.162 118.875 41.122C118.611 42.07 118.185 42.922 117.597 43.678C117.009 44.434 116.253 45.046 115.329 45.514C114.405 45.982 113.289 46.216 111.981 46.216C111.273 46.216 110.577 46.114 109.893 45.91C109.209 45.706 108.591 45.388 108.039 44.956C107.487 44.524 107.043 43.978 106.707 43.318C106.371 42.646 106.203 41.842 106.203 40.906ZM108.453 40.924C108.453 41.692 108.555 42.346 108.759 42.886C108.975 43.426 109.251 43.87 109.587 44.218C109.935 44.554 110.331 44.806 110.775 44.974C111.219 45.13 111.669 45.208 112.125 45.208C113.061 45.208 113.841 44.998 114.465 44.578C115.089 44.146 115.587 43.594 115.959 42.922C116.343 42.25 116.613 41.506 116.769 40.69C116.937 39.862 117.021 39.052 117.021 38.26C117.021 36.928 116.703 35.92 116.067 35.236C115.431 34.54 114.537 34.192 113.385 34.192C112.533 34.192 111.795 34.39 111.171 34.786C110.547 35.182 110.031 35.698 109.623 36.334C109.227 36.97 108.933 37.69 108.741 38.494C108.549 39.298 108.453 40.108 108.453 40.924ZM136.316 46H130.592L130.808 44.992H132.662L134.912 34.408H131.672L131.258 34.804L130.754 37.126H129.458L130.25 33.4H142.022L141.23 37.126H139.934L140.438 34.804L140.132 34.408H136.928L134.678 44.992H136.532L136.316 46ZM161.398 33.4L160.768 36.352H159.616L159.958 34.804L159.67 34.408H155.26L154.27 39.07H157.312L157.636 38.8L157.798 38.044H158.95L158.302 41.122H157.15L157.312 40.366L157.096 40.078H154.054L153.01 44.992H157.726L158.158 44.632L158.536 42.868H159.688L159.022 46H149.158L149.356 44.992H150.994L153.244 34.408H151.606L151.822 33.4H161.398ZM172.032 34.408L172.248 33.4H177.846L177.63 34.408H175.686L173.436 44.992H178.224L178.674 44.596L179.196 42.112H180.492L179.664 46H169.584L169.782 44.992H171.42L173.67 34.408H172.032Z" fill="#292929"/>
<path d="M19.7797 7.19977L20.4747 4H38.483L37.788 7.19977H31.5344L24.2962 40.8002H39.6993L41.147 39.5424L42.8259 31.6573H46.9952L44.3318 44H11.9048L12.5416 40.8002H17.8107L25.049 7.19977H19.7797Z" fill="#292929" stroke="#292929" stroke-width="0.5"/>
<path d="M16.1124 40.8002L15.5022 44H1L1.55954 40.8002H6.18977L12.5504 7.19981H7.92012L8.53082 4.00004H23.0837L22.473 7.19981H18.2496L15.5021 21.8862H33.3119L36.0594 7.19977H31.836L32.4467 4H47L46.3888 7.19977H41.7585L35.3979 40.8002H40.0281L39.4179 44H24.9158L25.4753 40.8002H29.6987L32.7011 25.086H14.8914L11.889 40.8002H16.1124Z" fill="white" stroke="#292929" stroke-width="0.5"/>
</svg>
