<svg width="102" height="102" viewBox="0 0 102 102" fill="none" xmlns="http://www.w3.org/2000/svg">
<path d="M47.7436 21.2239L48.5052 17.669H68.2528L67.4912 21.2239H60.6327L52.695 58.5629H69.5871L71.1746 57.1642L73.0154 48.4027H77.587L74.6672 62.1177H39.1086L39.8059 58.5629H45.5833L53.521 21.2239H47.7436Z" fill="#292929" stroke="#292929"/>
<path d="M43.7166 58.5629L43.0474 62.1177H27.144L27.7569 58.5629H32.835L39.8101 21.2239H34.732L35.4012 17.669H51.3608L50.6917 21.2239H46.0597L43.0474 37.5432H62.578L65.5903 21.2239H60.9583L61.6275 17.669H77.5871L76.916 21.2239H71.8379L64.8628 58.5629H69.9409L69.2717 62.1177H53.3683L53.9812 58.5629H58.6132L61.9048 41.1001H42.3742L39.0826 58.5629H43.7166Z" fill="white" stroke="#292929"/>
<path d="M22.8577 75.6559L22.9783 75.0932H26.1031L25.9825 75.6559H24.8974L23.6414 81.5639H26.3141L26.5653 81.3428L26.8566 79.9563H27.5801L27.1179 82.1265H21.4912L21.6017 81.5639H22.5161L23.772 75.6559H22.8577Z" fill="#292929"/>
<path d="M28.4842 77.3941V76.8515H30.3129L29.2679 81.584H30.0818V82.1265H28.1426L29.2177 77.3941H28.4842ZM29.1574 75.2238C29.1574 75.0289 29.2257 74.8762 29.3624 74.7616C29.499 74.6471 29.6758 74.5908 29.8909 74.5908C30.1179 74.5908 30.2988 74.6471 30.4274 74.7616C30.558 74.8762 30.6243 75.0289 30.6243 75.2238C30.6243 75.4187 30.558 75.5715 30.4274 75.686C30.2968 75.8006 30.1179 75.8568 29.8909 75.8568C29.6758 75.8568 29.501 75.8006 29.3624 75.686C29.2257 75.5715 29.1574 75.4187 29.1574 75.2238Z" fill="#292929"/>
<path d="M34.4926 82.6792C34.4926 82.4923 34.4082 82.3356 34.2374 82.211C34.0666 82.0864 33.8295 81.9839 33.5281 81.8995C33.2266 81.8151 32.8709 81.7468 32.457 81.6925C32.045 81.6382 31.5989 81.588 31.1166 81.5418L32.1113 80.1452C32.0169 80.0989 31.9224 80.0387 31.826 79.9683C31.7295 79.898 31.6431 79.8096 31.5688 79.7011C31.4944 79.5946 31.4341 79.468 31.3879 79.3233C31.3417 79.1786 31.3176 79.0138 31.3176 78.8249C31.3176 78.4974 31.3799 78.204 31.5025 77.9447C31.627 77.6875 31.8019 77.4685 32.031 77.2916C32.258 77.1148 32.5293 76.9782 32.8408 76.8857C33.1523 76.7933 33.4999 76.745 33.8797 76.745H36.6127V77.2876H35.5175C35.5637 77.368 35.6019 77.4926 35.628 77.6594C35.6541 77.8262 35.6682 77.991 35.6682 78.1517C35.6682 78.5195 35.5999 78.843 35.4612 79.1223C35.3246 79.3996 35.1417 79.6348 34.9146 79.8257C34.6876 80.0166 34.4243 80.1612 34.1269 80.2577C33.8295 80.3542 33.518 80.4044 33.1965 80.4044C33.0558 80.4044 32.9152 80.3984 32.7745 80.3843C32.6338 80.3702 32.5394 80.3501 32.4932 80.324L32.0511 80.947C32.4128 80.9731 32.7986 81.0073 33.2065 81.0474C33.6145 81.0876 33.9923 81.158 34.3379 81.2584C34.6835 81.3589 34.9689 81.4996 35.196 81.6804C35.423 81.8613 35.5376 82.1024 35.5376 82.4039C35.5376 82.6993 35.4572 82.9605 35.2964 83.1876C35.1357 83.4147 34.9227 83.6056 34.6594 83.7603C34.3942 83.915 34.0887 84.0316 33.7391 84.112C33.3914 84.1924 33.0297 84.2325 32.6539 84.2325C32.3324 84.2325 32.029 84.2024 31.7436 84.1421C31.4582 84.0818 31.2071 83.9974 30.99 83.8869C30.773 83.7764 30.6022 83.6458 30.4776 83.495C30.353 83.3443 30.2927 83.1755 30.2927 82.9866C30.2927 82.7656 30.3691 82.5807 30.5178 82.434C30.6685 82.2873 30.8393 82.1828 31.0302 82.1225H31.5889C31.4944 82.2029 31.4201 82.3014 31.3618 82.4179C31.3055 82.5345 31.2754 82.647 31.2754 82.7555C31.2754 82.9163 31.3216 83.055 31.416 83.1715C31.5085 83.2881 31.6291 83.3865 31.7758 83.4629C31.9224 83.5393 32.0872 83.5975 32.2701 83.6337C32.453 83.6699 32.6378 83.688 32.8247 83.688C33.098 83.688 33.3372 83.6598 33.5441 83.6036C33.7511 83.5473 33.9239 83.4689 34.0626 83.3725C34.2013 83.276 34.3098 83.1675 34.3821 83.0449C34.4545 82.9304 34.4926 82.8058 34.4926 82.6792ZM33.93 77.2535C33.4336 77.2535 33.0317 77.3861 32.7202 77.6493C32.4088 77.9146 32.252 78.3306 32.252 78.9013C32.252 79.0821 32.2801 79.2389 32.3364 79.3735C32.3927 79.5082 32.467 79.6207 32.5575 79.7091C32.6479 79.7995 32.7524 79.8658 32.8689 79.9101C32.9855 79.9543 33.1041 79.9764 33.2246 79.9764C33.4517 79.9764 33.6607 79.9362 33.8536 79.8558C34.0445 79.7754 34.2073 79.6629 34.3399 79.5202C34.4725 79.3775 34.577 79.2027 34.6514 79.0017C34.7257 78.8008 34.7619 78.5757 34.7619 78.3286C34.7619 78.0733 34.7358 77.8583 34.6855 77.6815C34.6353 77.5047 34.563 77.362 34.4685 77.2535H33.93Z" fill="#292929"/>
<path d="M37.3464 75.1334V74.5908H39.1851L38.4717 77.6955H38.532C38.7852 77.4343 39.0685 77.2112 39.38 77.0264C39.6935 76.8415 40.0693 76.7491 40.5074 76.7491C41.1866 76.7491 41.5262 77.151 41.5262 77.9548C41.5262 78.1497 41.5081 78.3547 41.4699 78.5737C41.4338 78.7907 41.3875 79.0017 41.3353 79.2027L40.7224 81.584H41.5764V82.1265H39.6975L40.3305 79.3835C40.3848 79.1685 40.433 78.9656 40.4752 78.7706C40.5194 78.5757 40.5415 78.3928 40.5415 78.218C40.5415 77.9708 40.4893 77.7759 40.3868 77.6353C40.2843 77.4946 40.1256 77.4243 39.9146 77.4243C39.7618 77.4243 39.6131 77.4464 39.4664 77.4906C39.3197 77.5348 39.1811 77.589 39.0484 77.6574C38.9158 77.7237 38.7932 77.802 38.6807 77.8885C38.5682 77.9749 38.4717 78.0633 38.3913 78.1497L37.5674 82.1286H36.5828L38.0698 75.1354H37.3464V75.1334Z" fill="#292929"/>
<path d="M42.8323 76.8515H43.8973L44.1887 75.6961H45.1231L44.8518 76.8515H46.2183V77.3941H44.7413L43.9576 80.4285C43.9234 80.5631 43.9013 80.6837 43.8873 80.7902C43.8732 80.8967 43.8672 81.0072 43.8672 81.1218C43.8672 81.4292 44.042 81.584 44.3917 81.584C44.5745 81.584 44.7795 81.5418 45.0086 81.4574C45.2377 81.373 45.4386 81.2544 45.6155 81.1017L45.8285 81.5036C45.7541 81.584 45.6516 81.6684 45.523 81.7548C45.3924 81.8412 45.2437 81.9196 45.0749 81.9899C44.9081 82.0602 44.7232 82.1165 44.5223 82.1607C44.3213 82.2049 44.1144 82.227 43.8993 82.227C43.5718 82.227 43.3166 82.1466 43.1357 81.9859C42.9549 81.8251 42.8644 81.6201 42.8644 81.373C42.8644 81.2665 42.8684 81.1539 42.8745 81.0374C42.8805 80.9208 42.9006 80.7982 42.9348 80.6696L43.7587 77.3941H42.8343V76.8515H42.8323Z" fill="#292929"/>
<path d="M51.7424 81.5639L51.6219 82.1265H48.7583L48.8688 81.5639H49.7832L51.0391 75.6559H50.1248L50.2453 75.0932H53.119L52.9984 75.6559H52.1644L51.6219 78.2381H55.1385L55.6811 75.6559H54.8472L54.9677 75.0932H57.8414L57.7208 75.6559H56.8064L55.5505 81.5639H56.4648L56.3443 82.1265H53.4807L53.5912 81.5639H54.4252L55.018 78.8008H51.5013L50.9085 81.5639H51.7424Z" fill="#292929"/>
<path d="M57.55 80.1673C57.55 79.7915 57.6123 79.4016 57.7349 78.9957C57.8595 78.5898 58.0464 78.2241 58.2976 77.8965C58.5488 77.569 58.8643 77.2957 59.2421 77.0766C59.6199 76.8596 60.064 76.7491 60.5744 76.7491C61.1571 76.7491 61.5952 76.9199 61.8906 77.2615C62.186 77.6031 62.3327 78.1015 62.3327 78.7586C62.3327 79.2208 62.2624 79.6589 62.1217 80.0748C61.9811 80.4908 61.7841 80.8545 61.5289 81.17C61.2737 81.4855 60.9703 81.7387 60.6146 81.9336C60.2589 82.1286 59.865 82.225 59.429 82.225C58.8603 82.225 58.4041 82.0482 58.0625 81.6965C57.7209 81.3448 57.55 80.8384 57.55 80.1673ZM60.3533 77.2233C60.1182 77.2233 59.9112 77.2736 59.7304 77.374C59.5495 77.4745 59.3948 77.6112 59.2682 77.782C59.1416 77.9528 59.0331 78.1477 58.9467 78.3647C58.8603 78.5818 58.7899 78.8108 58.7357 79.048C58.6814 79.2851 58.6452 79.5202 58.6251 79.7513C58.6051 79.9824 58.595 80.2014 58.595 80.4104C58.595 80.7983 58.6874 81.1198 58.8723 81.375C59.0572 81.6302 59.3084 81.7568 59.6299 81.7568C59.8851 81.7568 60.1142 81.6624 60.3172 81.4755C60.5221 81.2886 60.695 81.0474 60.8396 80.7561C60.9843 80.4647 61.0948 80.1311 61.1712 79.7573C61.2476 79.3815 61.2878 78.9977 61.2878 78.6019C61.2878 78.1859 61.2114 77.8523 61.0607 77.6011C60.91 77.3499 60.6749 77.2233 60.3533 77.2233Z" fill="#292929"/>
<path d="M68.2006 81.584V82.1265H66.3518L66.5628 80.9409H66.5226C66.4221 81.0816 66.2975 81.2283 66.1508 81.379C66.0041 81.5297 65.8374 81.6664 65.6545 81.791C65.4696 81.9155 65.2687 82.018 65.0516 82.1024C64.8346 82.1868 64.6035 82.229 64.3644 82.229C64.0569 82.229 63.8118 82.1466 63.6309 81.9839C63.45 81.8211 63.3596 81.58 63.3596 81.2645C63.3596 81.17 63.3677 81.0474 63.3857 80.8967C63.4018 80.746 63.4299 80.5732 63.4701 80.3783L64.1031 77.3941H63.4099V76.8515H65.2184L64.5251 79.8558C64.4849 80.0306 64.4448 80.2155 64.4046 80.4124C64.3644 80.6093 64.3443 80.8023 64.3443 80.9912C64.3443 81.1921 64.3885 81.3408 64.4749 81.4393C64.5613 81.5357 64.6759 81.584 64.8165 81.584C65.0436 81.584 65.2606 81.5297 65.4636 81.4232C65.6686 81.3167 65.8514 81.1901 66.0162 81.0454C66.181 80.9007 66.3176 80.752 66.4282 80.5993C66.5387 80.4466 66.6211 80.318 66.6753 80.2175L67.3485 76.8515H68.3131L67.3988 81.584H68.2006Z" fill="#292929"/>
<path d="M70.642 81.6844C70.7626 81.6844 70.8912 81.6724 71.0278 81.6503C71.1645 81.6262 71.2911 81.584 71.4056 81.5237C71.5202 81.4634 71.6126 81.381 71.687 81.2785C71.7613 81.176 71.7975 81.0414 71.7975 80.8806C71.7975 80.7138 71.7452 80.5651 71.6407 80.4385C71.5362 80.3119 71.4076 80.1894 71.2549 80.0728C71.1002 79.9562 70.9314 79.8377 70.7465 79.7211C70.5616 79.6046 70.3928 79.476 70.2401 79.3393C70.0854 79.2027 69.9568 79.0459 69.8523 78.8711C69.7478 78.6963 69.6975 78.4933 69.6975 78.2582C69.6975 78.011 69.7538 77.79 69.8683 77.5991C69.9829 77.4082 70.1356 77.2514 70.3305 77.1268C70.5255 77.0022 70.7566 76.9098 71.0238 76.8455C71.2911 76.7812 71.5764 76.7511 71.8779 76.7511C72.0185 76.7511 72.1572 76.7611 72.2958 76.7812C72.4325 76.8013 72.5611 76.8254 72.6777 76.8576C72.7942 76.8877 72.8967 76.9219 72.9831 76.9621C73.0695 77.0023 73.1338 77.0384 73.174 77.0726L72.8726 78.2482H72.2295L72.4003 77.4243C72.3461 77.3841 72.2516 77.3519 72.115 77.3298C71.9783 77.3057 71.8618 77.2956 71.7633 77.2956C71.6568 77.2956 71.5443 77.3037 71.4217 77.3218C71.2991 77.3398 71.1846 77.372 71.0801 77.4222C70.9736 77.4725 70.8872 77.5428 70.8168 77.6332C70.7485 77.7237 70.7123 77.8422 70.7123 77.9909C70.7123 78.1718 70.7646 78.3285 70.8691 78.4632C70.9736 78.5978 71.1042 78.7204 71.265 78.8349C71.4257 78.9495 71.5965 79.062 71.7774 79.1766C71.9582 79.2911 72.1291 79.4157 72.2898 79.5543C72.4506 79.691 72.5832 79.8497 72.6877 80.0266C72.7922 80.2034 72.8424 80.4164 72.8424 80.6636C72.8424 80.9188 72.7761 81.1419 72.6415 81.3368C72.5069 81.5317 72.33 81.6945 72.109 81.8291C71.8879 81.9638 71.6307 82.0642 71.3393 82.1306C71.0479 82.1969 70.7485 82.231 70.4411 82.231C70.2662 82.231 70.0934 82.215 69.9226 82.1808C69.7518 82.1466 69.595 82.1044 69.4504 82.0542C69.3057 82.004 69.1831 81.9497 69.0786 81.8934C68.9741 81.8372 68.9018 81.7869 68.8616 81.7467L69.2434 80.5511H69.9266L69.6654 81.385C69.7397 81.4594 69.8603 81.5277 70.0271 81.592C70.1979 81.6523 70.4009 81.6844 70.642 81.6844Z" fill="#292929"/>
<path d="M77.9065 81.162C77.8321 81.2966 77.7316 81.4272 77.605 81.5538C77.4784 81.6804 77.3277 81.795 77.1529 81.8954C76.9781 81.9959 76.7851 82.0763 76.5701 82.1366C76.3551 82.1969 76.124 82.227 75.8768 82.227C75.3001 82.227 74.8399 82.0642 74.4943 81.7407C74.1487 81.4152 73.9758 80.959 73.9758 80.3682C73.9758 79.8658 74.0502 79.3936 74.1969 78.9515C74.3436 78.5094 74.5526 78.1276 74.8198 77.8061C75.0871 77.4845 75.4106 77.2273 75.7884 77.0364C76.1662 76.8455 76.5882 76.7511 77.0504 76.7511C77.2313 76.7511 77.4021 76.7732 77.5628 76.8174C77.7236 76.8616 77.8643 76.9259 77.9848 77.0123C78.1054 77.0987 78.1998 77.2072 78.2662 77.3338C78.3325 77.4604 78.3666 77.6091 78.3666 77.7759C78.3666 78.2582 78.1114 78.646 77.603 78.9414C77.0946 79.2368 76.2607 79.4237 75.1012 79.5041C75.075 79.6247 75.0549 79.7392 75.0409 79.8457C75.0268 79.9522 75.0208 80.0607 75.0208 80.1673C75.0208 80.5893 75.1293 80.9269 75.3483 81.178C75.5654 81.4292 75.8849 81.5558 76.3069 81.5558C76.4415 81.5558 76.5741 81.5357 76.7048 81.4955C76.8354 81.4554 76.96 81.4031 77.0826 81.3408C77.2031 81.2765 77.3116 81.2062 77.4101 81.1238C77.5066 81.0434 77.5869 80.967 77.6452 80.8927L77.9065 81.162ZM76.7208 77.2233C76.4053 77.2233 76.118 77.362 75.8567 77.6413C75.5955 77.9186 75.3704 78.3828 75.1836 79.0319C75.8929 79.0118 76.4375 78.8952 76.8173 78.6802C77.1951 78.4652 77.386 78.1778 77.386 77.8161C77.386 77.7418 77.3759 77.6714 77.3558 77.5991C77.3358 77.5287 77.2996 77.4644 77.2493 77.4082C77.1991 77.3519 77.1328 77.3057 77.0484 77.2715C76.964 77.2394 76.8555 77.2233 76.7208 77.2233Z" fill="#292929"/>
<path d="M100.9 1.10046H1.10059V100.9H100.9V1.10046Z" stroke="#292929" stroke-miterlimit="10"/>
</svg>
