<svg width="14" height="11" viewBox="0 0 14 11" fill="none" xmlns="http://www.w3.org/2000/svg">
<path d="M11.8436 0.609375L5.50413 6.94889C5.33326 7.11976 5.05621 7.11976 4.88534 6.94889L2.15636 4.2199L0 6.37625L4.11652 10.4928C4.40248 10.7788 4.79032 10.9394 5.19471 10.9394C5.59907 10.9394 5.98694 10.7788 6.27288 10.4928L14 2.7657L11.8436 0.609375Z" fill="#2488FF"/>
<g opacity="0.1">
<path opacity="0.1" d="M13.2871 2.05261L5.12961 10.2101C4.90391 10.4358 4.62011 10.5897 4.31348 10.6583C4.5695 10.8397 4.87698 10.9394 5.1949 10.9394C5.59926 10.9394 5.98713 10.7787 6.27307 10.4928L14.0002 2.76568L13.2871 2.05261Z" fill="#005ECE"/>
</g>
</svg>
